<?xml version="1.0" encoding="UTF-8"?><svg id="b" xmlns="http://www.w3.org/2000/svg" width="607.2" height="191.37" viewBox="0 0 607.2 191.37"><g id="c"><path d="M14.33,6.74c-.07,3.53-.07,7.09-.07,10.76v1.83c0,3.53,0,7.09.07,10.66l3.96.4v1.3H6.01v-1.3l3.96-.4c.11-3.49.11-7.06.11-10.66v-1.83c0-3.56,0-7.16-.11-10.76h-5.9l-1.33,5.62H.79l.29-7.2h22.14l.29,7.2h-1.94l-1.33-5.62h-5.9Z" stroke-width="0"/><path d="M23.69,22.21c0-6.48,4.46-10.01,9.36-10.01s9.32,3.49,9.32,10.01-4.36,10.01-9.32,10.01-9.36-3.53-9.36-10.01ZM38.19,22.25c0-5.69-1.94-8.64-5.15-8.64s-5.15,2.95-5.15,8.64,1.87,8.53,5.15,8.53,5.15-2.88,5.15-8.53Z" stroke-width="0"/><path d="M74.98,13.97l-2.27.43-5.98,17.49h-1.62c-3.02-8.03-4.28-11.59-5.15-14.43l-5.26,14.43h-1.66l-6.41-17.6-2.16-.32v-1.22h9.32v1.22l-3.06.36,4.25,13.07,4.54-13.03-2.92-.4v-1.22h8.71v1.22l-2.99.43,4.68,12.89,3.89-12.85-3.2-.47v-1.22h7.27v1.22Z" stroke-width="0"/><path d="M95.4,29.95c-.86,1.62-2.02,2.2-3.64,2.2-2.02,0-3.31-1.19-3.67-3.13-2.09,2.12-3.49,3.2-6.01,3.2-2.95,0-5.18-1.73-5.18-4.82,0-2.66,1.51-4.43,6.77-6.23,1.22-.36,2.81-.83,4.32-1.19v-1.48c0-3.85-1.04-4.9-3.74-4.9-.65,0-1.33.07-2.12.29l-.61,2.66c-.29,1.51-1.04,2.23-2.16,2.23s-1.76-.54-1.91-1.58c.61-3.1,3.53-5,7.96-5s6.37,1.94,6.37,6.88v8.86c0,1.8.54,2.38,1.37,2.38.65,0,1.04-.29,1.66-1.01l.61.65ZM87.98,21.13c-1.3.36-2.52.76-3.28,1.04-3.17,1.26-4,2.84-4,4.64,0,2.12,1.26,3.06,3.06,3.06,1.3,0,2.2-.5,4.21-2.12v-6.62Z" stroke-width="0"/><path d="M104.33,17.53c1.19-3.38,3.53-5.33,5.76-5.33,1.33,0,2.59.54,3.02,1.8-.04,1.66-.72,2.74-2.3,2.74-1.08,0-1.84-.58-2.63-1.4l-.47-.47c-1.58,1.22-2.63,2.88-3.38,5.44v3.02c0,1.87.04,4.68.07,6.7l3.35.5v1.15h-10.11v-1.15l2.77-.4c.07-2.05.11-4.93.11-6.8v-2.3c0-2.27-.07-3.64-.14-5.29l-3.02-.29v-1.08l6.08-2.12.54.36.36,4.93Z" stroke-width="0"/><path d="M135.43,30.53v1.15l-6.48.4-.25-2.56c-1.4,1.69-3.2,2.7-5.58,2.7-4.75,0-8.17-3.92-8.17-9.86,0-6.26,3.67-10.15,8.57-10.15,1.94,0,3.64.65,5.22,2.52V5.33l-3.24-.29v-1.12l6.55-1.55.54.29-.18,5.62v21.96l3.02.29ZM128.59,16.06c-1.51-1.3-2.77-1.76-4-1.76-2.99,0-5.54,2.16-5.54,7.92s2.34,7.88,5.47,7.88c1.55,0,2.7-.5,4.07-1.91v-12.13Z" stroke-width="0"/><path d="M166.75,29.95c-.86,1.62-2.02,2.2-3.64,2.2-2.02,0-3.31-1.19-3.67-3.13-2.09,2.12-3.49,3.2-6.01,3.2-2.95,0-5.18-1.73-5.18-4.82,0-2.66,1.51-4.43,6.77-6.23,1.22-.36,2.81-.83,4.32-1.19v-1.48c0-3.85-1.04-4.9-3.74-4.9-.65,0-1.33.07-2.12.29l-.61,2.66c-.29,1.51-1.04,2.23-2.16,2.23s-1.76-.54-1.91-1.58c.61-3.1,3.53-5,7.96-5s6.37,1.94,6.37,6.88v8.86c0,1.8.54,2.38,1.37,2.38.65,0,1.04-.29,1.66-1.01l.61.65ZM159.33,21.13c-1.3.36-2.52.76-3.28,1.04-3.17,1.26-4,2.84-4,4.64,0,2.12,1.26,3.06,3.06,3.06,1.3,0,2.2-.5,4.21-2.12v-6.62Z" stroke-width="0"/><path d="M207.68,13.97l-2.27.43-5.98,17.49h-1.62c-3.02-8.03-4.28-11.59-5.15-14.43l-5.26,14.43h-1.66l-6.41-17.6-2.16-.32v-1.22h9.32v1.22l-3.06.36,4.25,13.07,4.54-13.03-2.92-.4v-1.22h8.71v1.22l-2.99.43,4.68,12.89,3.89-12.85-3.2-.47v-1.22h7.27v1.22Z" stroke-width="0"/><path d="M209.34,22.21c0-6.48,4.46-10.01,9.36-10.01s9.32,3.49,9.32,10.01-4.36,10.01-9.32,10.01-9.36-3.53-9.36-10.01ZM223.84,22.25c0-5.69-1.94-8.64-5.15-8.64s-5.15,2.95-5.15,8.64,1.87,8.53,5.15,8.53,5.15-2.88,5.15-8.53Z" stroke-width="0"/><path d="M238.46,17.53c1.19-3.38,3.53-5.33,5.76-5.33,1.33,0,2.59.54,3.02,1.8-.04,1.66-.72,2.74-2.3,2.74-1.08,0-1.84-.58-2.63-1.4l-.47-.47c-1.58,1.22-2.63,2.88-3.38,5.44v3.02c0,1.87.04,4.68.07,6.7l3.35.5v1.15h-10.11v-1.15l2.77-.4c.07-2.05.11-4.93.11-6.8v-2.3c0-2.27-.07-3.64-.14-5.29l-3.02-.29v-1.08l6.08-2.12.54.36.36,4.93Z" stroke-width="0"/><path d="M258.51,30.53v1.15h-9.97v-1.15l3.02-.4c.04-2.23.07-4.61.07-6.8V5.33l-3.1-.29v-1.12l6.52-1.55.54.29-.14,5.65v15.01c0,2.2.04,4.57.07,6.8l2.99.4Z" stroke-width="0"/><path d="M282.27,30.53v1.15l-6.48.4-.25-2.56c-1.4,1.69-3.2,2.7-5.58,2.7-4.75,0-8.17-3.92-8.17-9.86,0-6.26,3.67-10.15,8.57-10.15,1.94,0,3.64.65,5.22,2.52V5.33l-3.24-.29v-1.12l6.55-1.55.54.29-.18,5.62v21.96l3.02.29ZM275.43,16.06c-1.51-1.3-2.77-1.76-4-1.76-2.99,0-5.54,2.16-5.54,7.92s2.34,7.88,5.47,7.88c1.55,0,2.7-.5,4.07-1.91v-12.13Z" stroke-width="0"/><path d="M1.62,83.21c0-6.48,4.46-10.01,9.36-10.01s9.32,3.49,9.32,10.01-4.36,10.01-9.32,10.01-9.36-3.53-9.36-10.01ZM16.13,83.25c0-5.69-1.94-8.64-5.15-8.64s-5.15,2.95-5.15,8.64,1.87,8.53,5.15,8.53,5.15-2.88,5.15-8.53Z" stroke-width="0"/><path d="M27,73.67c.32-4.17,1.26-6.51,2.95-8.28,1.76-1.84,3.85-2.41,5.72-2.41s3.56.61,3.96,2.2c-.04,1.08-.9,1.87-2.3,1.87-1.12,0-1.98-.47-2.95-1.66l-.94-.94c-.5.32-1.01.76-1.33,1.3-.97,1.55-1.48,3.89-1.37,7.99h5.33v1.62h-5.26v8.96c0,2.23.04,4.5.07,6.73l3.53.47v1.15h-10.58v-1.15l3.02-.4c.07-2.27.11-4.54.11-6.8v-8.96h-3.2v-1.3l3.24-.4Z" stroke-width="0"/><path d="M65.3,88.47c-1.3,3.02-3.82,4.75-7.56,4.75-5.36,0-9.14-3.78-9.14-9.97s4.5-10.04,9.65-10.04c3.6,0,6.48,2.16,7.02,5.15-.29,1.08-.9,1.55-1.91,1.55-1.26,0-2.02-.76-2.27-2.23l-.65-2.77c-.65-.22-1.26-.29-1.91-.29-3.49,0-5.9,3.02-5.9,8.24s2.7,8.06,6.52,8.06c2.23,0,4.1-.97,5.4-2.81l.76.36Z" stroke-width="0"/><path d="M68.9,83.21c0-6.48,4.46-10.01,9.36-10.01s9.32,3.49,9.32,10.01-4.36,10.01-9.32,10.01-9.36-3.53-9.36-10.01ZM83.41,83.25c0-5.69-1.94-8.64-5.15-8.64s-5.15,2.95-5.15,8.64,1.87,8.53,5.15,8.53,5.15-2.88,5.15-8.53Z" stroke-width="0"/><path d="M124.55,91.53v1.15h-9.32v-1.15l2.7-.4c.04-2.02.07-4.82.07-6.8v-4.03c0-3.53-.97-4.61-3.1-4.61-1.55,0-3.17.76-5.08,2.59.07.61.11,1.26.11,1.98v4.07c0,1.98.04,4.79.07,6.8l2.59.4v1.15h-9.36v-1.15l2.81-.4c.04-2.02.07-4.82.07-6.8v-4c0-3.46-.9-4.64-3.06-4.64-1.66,0-3.24.86-5.04,2.63v6.01c0,1.91.04,4.79.07,6.8l2.59.4v1.15h-9.4v-1.15l2.81-.4c.07-2.05.11-4.93.11-6.8v-2.3c0-2.27-.07-3.64-.14-5.29l-3.02-.29v-1.08l6.08-2.12.54.36.29,3.24c2.05-2.34,4.39-3.64,6.77-3.64,2.52,0,4.18,1.15,4.86,3.71,2.16-2.63,4.54-3.71,7.02-3.71,3.42,0,5.26,2.05,5.26,6.91v4.21c0,1.98.04,4.79.07,6.8l2.63.4Z" stroke-width="0"/><path d="M134.21,76.05c1.84-1.98,3.92-2.84,6.08-2.84,4.36,0,7.63,3.6,7.63,9.86,0,5.94-3.28,10.15-8.1,10.15-1.94,0-3.92-.65-5.65-2.74l-.43,2.59-6.19-.4v-1.15l2.84-.43c.04-2.02.07-4.89.07-6.77v-18l-3.1-.29v-1.12l6.44-1.55.5.29-.11,5.65v6.73ZM134.28,89.19c1.44,1.37,2.92,1.91,4.36,1.91,2.77,0,5.18-2.09,5.18-7.88,0-5.4-2.09-7.96-5.04-7.96-1.26,0-2.63.29-4.5,1.98v11.95Z" stroke-width="0"/><path d="M161.02,91.53v1.15h-9.39v-1.15l2.81-.4c.04-2.05.07-4.93.07-6.8v-2.3c0-2.23-.04-3.6-.11-5.33l-3.06-.29v-1.12l6.59-2.05.5.36-.07,5.36v5.36c0,1.91.04,4.79.07,6.8l2.59.4ZM153.68,66.33c0-1.48,1.19-2.48,2.66-2.48s2.63,1.01,2.63,2.48-1.19,2.52-2.63,2.52-2.66-1.04-2.66-2.52Z" stroke-width="0"/><path d="M185.94,91.53v1.15h-9.4v-1.15l2.81-.4c.04-2.02.07-4.82.07-6.8v-4.1c0-3.38-1.01-4.54-3.13-4.54-1.55,0-3.24.76-5.22,2.56v6.08c0,1.91.04,4.79.07,6.8l2.59.4v1.15h-9.4v-1.15l2.81-.4c.07-2.05.11-4.93.11-6.8v-2.3c0-2.27-.07-3.64-.14-5.29l-3.02-.29v-1.08l6.08-2.12.54.36.29,3.24c2.16-2.41,4.61-3.64,7.02-3.64,3.35,0,5.22,2.09,5.22,7.06v4.07c0,1.98.04,4.79.07,6.8l2.63.4Z" stroke-width="0"/><path d="M207.86,90.95c-.86,1.62-2.02,2.2-3.64,2.2-2.02,0-3.31-1.19-3.67-3.13-2.09,2.12-3.49,3.2-6.01,3.2-2.95,0-5.18-1.73-5.18-4.82,0-2.66,1.51-4.43,6.77-6.23,1.22-.36,2.81-.83,4.32-1.19v-1.48c0-3.85-1.04-4.9-3.74-4.9-.65,0-1.33.07-2.12.29l-.61,2.66c-.29,1.51-1.04,2.23-2.16,2.23s-1.76-.54-1.91-1.58c.61-3.1,3.53-5,7.96-5s6.37,1.94,6.37,6.88v8.86c0,1.8.54,2.38,1.37,2.38.65,0,1.04-.29,1.66-1.01l.61.65ZM200.44,82.13c-1.3.36-2.52.76-3.28,1.04-3.17,1.26-4,2.84-4,4.64,0,2.12,1.26,3.06,3.06,3.06,1.3,0,2.2-.5,4.21-2.12v-6.62Z" stroke-width="0"/><path d="M221.9,90.95c-1.01,1.44-2.63,2.27-4.82,2.27-3.02,0-4.72-1.55-4.72-4.86,0-1.08.04-2.02.04-3.49v-9.5h-3.28v-1.3l3.49-.4,1.22-5.51h2.59l-.18,5.58h5.08v1.62h-5.11v12.99c0,2.05.9,2.92,2.34,2.92.9,0,1.62-.36,2.63-1.12l.72.79Z" stroke-width="0"/><path d="M224.24,83.21c0-6.48,4.46-10.01,9.36-10.01s9.32,3.49,9.32,10.01-4.36,10.01-9.32,10.01-9.36-3.53-9.36-10.01ZM238.75,83.25c0-5.69-1.94-8.64-5.15-8.64s-5.15,2.95-5.15,8.64,1.87,8.53,5.15,8.53,5.15-2.88,5.15-8.53Z" stroke-width="0"/><path d="M253.36,78.53c1.19-3.38,3.53-5.33,5.76-5.33,1.33,0,2.59.54,3.02,1.8-.04,1.66-.72,2.74-2.3,2.74-1.08,0-1.84-.58-2.63-1.4l-.47-.47c-1.58,1.22-2.63,2.88-3.38,5.44v3.02c0,1.87.04,4.68.07,6.7l3.35.5v1.15h-10.11v-1.15l2.77-.4c.07-2.05.11-4.93.11-6.8v-2.3c0-2.27-.07-3.64-.14-5.29l-3.02-.29v-1.08l6.08-2.12.54.36.36,4.93Z" stroke-width="0"/><path d="M273.74,91.53v1.15h-9.39v-1.15l2.81-.4c.04-2.05.07-4.93.07-6.8v-2.3c0-2.23-.04-3.6-.11-5.33l-3.06-.29v-1.12l6.59-2.05.5.36-.07,5.36v5.36c0,1.91.04,4.79.07,6.8l2.59.4ZM266.4,66.33c0-1.48,1.19-2.48,2.66-2.48s2.63,1.01,2.63,2.48-1.19,2.52-2.63,2.52-2.66-1.04-2.66-2.52Z" stroke-width="0"/><path d="M295.81,90.95c-.86,1.62-2.02,2.2-3.64,2.2-2.02,0-3.31-1.19-3.67-3.13-2.09,2.12-3.49,3.2-6.01,3.2-2.95,0-5.18-1.73-5.18-4.82,0-2.66,1.51-4.43,6.77-6.23,1.22-.36,2.81-.83,4.32-1.19v-1.48c0-3.85-1.04-4.9-3.74-4.9-.65,0-1.33.07-2.12.29l-.61,2.66c-.29,1.51-1.04,2.23-2.16,2.23s-1.76-.54-1.91-1.58c.61-3.1,3.53-5,7.96-5s6.37,1.94,6.37,6.88v8.86c0,1.8.54,2.38,1.37,2.38.65,0,1.04-.29,1.66-1.01l.61.65ZM288.39,82.13c-1.3.36-2.52.76-3.28,1.04-3.17,1.26-4,2.84-4,4.64,0,2.12,1.26,3.06,3.06,3.06,1.3,0,2.2-.5,4.21-2.12v-6.62Z" stroke-width="0"/><path d="M307.72,91.53v1.15h-9.97v-1.15l3.02-.4c.04-2.23.07-4.61.07-6.8v-18l-3.1-.29v-1.12l6.52-1.55.54.29-.14,5.65v15.01c0,2.2.04,4.57.07,6.8l2.99.4Z" stroke-width="0"/><path d="M327.31,78.53c1.19-3.38,3.53-5.33,5.76-5.33,1.33,0,2.59.54,3.02,1.8-.04,1.66-.72,2.74-2.3,2.74-1.08,0-1.84-.58-2.63-1.4l-.47-.47c-1.58,1.22-2.63,2.88-3.38,5.44v3.02c0,1.87.04,4.68.07,6.7l3.35.5v1.15h-10.11v-1.15l2.77-.4c.07-2.05.11-4.93.11-6.8v-2.3c0-2.27-.07-3.64-.14-5.29l-3.02-.29v-1.08l6.08-2.12.54.36.36,4.93Z" stroke-width="0"/><path d="M342.03,83.07c.11,5.36,2.81,7.85,6.51,7.85,2.56,0,4.14-1.04,5.51-2.77l.72.5c-1.44,2.84-4.07,4.57-7.56,4.57-5.43,0-9.29-3.64-9.29-9.97s4.46-10.04,9.36-10.04c4.57,0,7.59,3.1,7.59,7.67,0,.9-.07,1.62-.25,2.2h-12.6ZM349.12,81.67c1.66,0,2.05-.83,2.05-2.34,0-2.66-1.69-4.71-4.14-4.71s-4.68,2.12-4.97,7.05h7.06Z" stroke-width="0"/><path d="M375.47,88.47c-1.3,3.02-3.82,4.75-7.56,4.75-5.36,0-9.14-3.78-9.14-9.97s4.5-10.04,9.65-10.04c3.6,0,6.48,2.16,7.02,5.15-.29,1.08-.9,1.55-1.91,1.55-1.26,0-2.02-.76-2.27-2.23l-.65-2.77c-.65-.22-1.26-.29-1.91-.29-3.49,0-5.9,3.02-5.9,8.24s2.7,8.06,6.52,8.06c2.23,0,4.1-.97,5.4-2.81l.76.36Z" stroke-width="0"/><path d="M379.07,83.21c0-6.48,4.46-10.01,9.36-10.01s9.32,3.49,9.32,10.01-4.36,10.01-9.32,10.01-9.36-3.53-9.36-10.01ZM393.58,83.25c0-5.69-1.94-8.64-5.15-8.64s-5.15,2.95-5.15,8.64,1.87,8.53,5.15,8.53,5.15-2.88,5.15-8.53Z" stroke-width="0"/><path d="M423.06,91.53v1.15h-9.39v-1.15l2.81-.4c.04-2.02.07-4.82.07-6.8v-4.1c0-3.38-1.01-4.54-3.13-4.54-1.55,0-3.24.76-5.22,2.56v6.08c0,1.91.04,4.79.07,6.8l2.59.4v1.15h-9.4v-1.15l2.81-.4c.07-2.05.11-4.93.11-6.8v-2.3c0-2.27-.07-3.64-.14-5.29l-3.02-.29v-1.08l6.08-2.12.54.36.29,3.24c2.16-2.41,4.61-3.64,7.02-3.64,3.35,0,5.22,2.09,5.22,7.06v4.07c0,1.98.04,4.79.07,6.8l2.63.4Z" stroke-width="0"/><path d="M448.19,91.53v1.15h-9.43v-1.15l2.84-.4c.04-2.05.07-4.93.07-6.8v-2.74c0-2.66-.04-4.28-.14-6.23h-8.49v8.96c0,2.23.04,4.5.07,6.73l3.31.47v1.15h-10.37v-1.15l3.02-.4c.07-2.27.11-4.54.11-6.8v-8.96h-3.2v-1.3l3.24-.4c.32-4.17,1.4-6.51,3.46-8.35,1.87-1.69,4.28-2.34,6.77-2.34,3.06,0,5.43,1.26,5.65,3.42-.14.94-.9,1.69-2.05,1.69-1.08,0-1.91-.65-2.81-1.94l-1.48-1.98c-1.4.14-2.66.72-3.56,1.66-1.51,1.48-2.23,3.71-2.2,7.92h8.42l3.71-.5.47.36-.07,5.22v5.51c0,1.91.04,4.79.07,6.8l2.59.4Z" stroke-width="0"/><path d="M470.04,76.05l-4.18-.22c.76,1.04,1.15,2.34,1.15,3.89,0,4-2.92,6.55-7.42,6.55-1.3,0-2.45-.18-3.42-.58-.68.86-.97,1.58-.97,2.48,0,1.19.61,1.91,2.63,1.91h5.29c4.61,0,6.62,1.91,6.62,5.11,0,3.56-3.42,6.91-10.15,6.91-5.87,0-8.32-2.12-8.32-4.89,0-1.69,1.12-3.06,3.78-4.28-1.66-.54-2.56-1.48-2.56-3.13,0-1.4.76-2.7,2.77-4.5-1.94-1.08-3.06-2.99-3.06-5.58,0-4.03,2.88-6.52,7.42-6.52,2.2,0,4,.54,5.26,1.58l4.5-1.58.65.4v2.45ZM458.41,93.4c-1.15,0-1.87-.04-2.63-.18-.97,1.08-1.44,2.05-1.44,3.38,0,2.63,2.09,3.92,5.26,3.92,4.57,0,6.95-1.76,6.95-4.03,0-1.69-1.01-3.1-3.71-3.1h-4.43ZM463.45,79.65c0-3.13-1.4-5.18-3.82-5.18s-3.85,2.09-3.85,5.29,1.4,5.25,3.74,5.25c2.48,0,3.92-2.16,3.92-5.36Z" stroke-width="0"/><path d="M493.76,91.53v1.15l-6.08.36-.29-3.64c-1.87,2.34-4.36,3.82-6.91,3.82-3.35,0-5.4-1.91-5.33-7.24l.11-10.19-2.77-.54v-1.12l6.3-.72.36.4-.14,5.65v6.51c0,3.42,1.12,4.57,3.2,4.57,1.84,0,3.56-.9,5.11-2.45l.07-12.31-2.74-.54v-1.08l6.23-.76.4.4-.11,5.65v11.73l2.59.32Z" stroke-width="0"/><path d="M503.85,78.53c1.19-3.38,3.53-5.33,5.76-5.33,1.33,0,2.59.54,3.02,1.8-.04,1.66-.72,2.74-2.3,2.74-1.08,0-1.84-.58-2.63-1.4l-.47-.47c-1.58,1.22-2.63,2.88-3.38,5.44v3.02c0,1.87.04,4.68.07,6.7l3.35.5v1.15h-10.12v-1.15l2.77-.4c.07-2.05.11-4.93.11-6.8v-2.3c0-2.27-.07-3.64-.14-5.29l-3.02-.29v-1.08l6.08-2.12.54.36.36,4.93Z" stroke-width="0"/><path d="M533.04,90.95c-.86,1.62-2.02,2.2-3.64,2.2-2.02,0-3.31-1.19-3.67-3.13-2.09,2.12-3.49,3.2-6.01,3.2-2.95,0-5.18-1.73-5.18-4.82,0-2.66,1.51-4.43,6.77-6.23,1.22-.36,2.81-.83,4.32-1.19v-1.48c0-3.85-1.04-4.9-3.74-4.9-.65,0-1.33.07-2.12.29l-.61,2.66c-.29,1.51-1.04,2.23-2.16,2.23s-1.76-.54-1.91-1.58c.61-3.1,3.53-5,7.96-5s6.37,1.94,6.37,6.88v8.86c0,1.8.54,2.38,1.37,2.38.65,0,1.04-.29,1.66-1.01l.61.65ZM525.62,82.13c-1.3.36-2.52.76-3.28,1.04-3.17,1.26-4,2.84-4,4.64,0,2.12,1.26,3.06,3.06,3.06,1.3,0,2.2-.5,4.21-2.12v-6.62Z" stroke-width="0"/><path d="M547.08,90.95c-1.01,1.44-2.63,2.27-4.82,2.27-3.02,0-4.71-1.55-4.71-4.86,0-1.08.04-2.02.04-3.49v-9.5h-3.28v-1.3l3.49-.4,1.22-5.51h2.59l-.18,5.58h5.08v1.62h-5.11v12.99c0,2.05.9,2.92,2.34,2.92.9,0,1.62-.36,2.63-1.12l.72.79Z" stroke-width="0"/><path d="M558.64,91.53v1.15h-9.4v-1.15l2.81-.4c.04-2.05.07-4.93.07-6.8v-2.3c0-2.23-.04-3.6-.11-5.33l-3.06-.29v-1.12l6.59-2.05.5.36-.07,5.36v5.36c0,1.91.04,4.79.07,6.8l2.59.4ZM551.29,66.33c0-1.48,1.19-2.48,2.66-2.48s2.63,1.01,2.63,2.48-1.19,2.52-2.63,2.52-2.66-1.04-2.66-2.52Z" stroke-width="0"/><path d="M562.09,83.21c0-6.48,4.46-10.01,9.36-10.01s9.32,3.49,9.32,10.01-4.36,10.01-9.32,10.01-9.36-3.53-9.36-10.01ZM576.6,83.25c0-5.69-1.94-8.64-5.15-8.64s-5.15,2.95-5.15,8.64,1.87,8.53,5.15,8.53,5.15-2.88,5.15-8.53Z" stroke-width="0"/><path d="M606.08,91.53v1.15h-9.39v-1.15l2.81-.4c.04-2.02.07-4.82.07-6.8v-4.1c0-3.38-1.01-4.54-3.13-4.54-1.55,0-3.24.76-5.22,2.56v6.08c0,1.91.04,4.79.07,6.8l2.59.4v1.15h-9.4v-1.15l2.81-.4c.07-2.05.11-4.93.11-6.8v-2.3c0-2.27-.07-3.64-.14-5.29l-3.02-.29v-1.08l6.08-2.12.54.36.29,3.24c2.16-2.41,4.61-3.64,7.02-3.64,3.35,0,5.22,2.09,5.22,7.06v4.07c0,1.98.04,4.79.07,6.8l2.63.4Z" stroke-width="0"/><path d="M13.21,151.95c-1.01,1.44-2.63,2.27-4.82,2.27-3.02,0-4.72-1.55-4.72-4.86,0-1.08.04-2.02.04-3.49v-9.5H.43v-1.3l3.49-.4,1.22-5.51h2.59l-.18,5.58h5.08v1.62h-5.11v12.99c0,2.05.9,2.92,2.34,2.92.9,0,1.62-.36,2.63-1.12l.72.79Z" stroke-width="0"/><path d="M36.93,152.53v1.15h-9.39v-1.15l2.77-.4c.04-2.02.07-4.82.07-6.8v-4.1c0-3.42-1.04-4.54-3.13-4.54-1.62,0-3.31.68-5.29,2.52v6.12c0,1.91.04,4.79.07,6.8l2.56.4v1.15h-9.4v-1.15l2.88-.4c.04-2.05.07-4.93.07-6.8v-18l-3.1-.29v-1.12l6.44-1.55.5.29-.11,5.65v7.59c2.09-2.38,4.5-3.71,7.09-3.71,3.38,0,5.26,2.02,5.26,7.09v4.03c0,1.98.04,4.79.07,6.8l2.63.4Z" stroke-width="0"/><path d="M58.89,151.95c-.86,1.62-2.02,2.2-3.64,2.2-2.02,0-3.31-1.19-3.67-3.13-2.09,2.12-3.49,3.2-6.01,3.2-2.95,0-5.18-1.73-5.18-4.82,0-2.66,1.51-4.43,6.77-6.23,1.22-.36,2.81-.83,4.32-1.19v-1.48c0-3.85-1.04-4.9-3.74-4.9-.65,0-1.33.07-2.12.29l-.61,2.66c-.29,1.51-1.04,2.23-2.16,2.23s-1.76-.54-1.91-1.58c.61-3.1,3.53-5,7.96-5s6.37,1.94,6.37,6.88v8.86c0,1.8.54,2.38,1.37,2.38.65,0,1.04-.29,1.66-1.01l.61.65ZM51.48,143.13c-1.3.36-2.52.76-3.28,1.04-3.17,1.26-4,2.84-4,4.64,0,2.12,1.26,3.06,3.06,3.06,1.3,0,2.2-.5,4.21-2.12v-6.62Z" stroke-width="0"/><path d="M72.93,151.95c-1.01,1.44-2.63,2.27-4.82,2.27-3.02,0-4.72-1.55-4.72-4.86,0-1.08.04-2.02.04-3.49v-9.5h-3.28v-1.3l3.49-.4,1.22-5.51h2.59l-.18,5.58h5.08v1.62h-5.11v12.99c0,2.05.9,2.92,2.34,2.92.9,0,1.62-.36,2.63-1.12l.72.79Z" stroke-width="0"/><path d="M113.75,135.97l-2.27.43-5.98,17.49h-1.62c-3.02-8.03-4.28-11.59-5.15-14.43l-5.26,14.43h-1.66l-6.41-17.6-2.16-.32v-1.22h9.32v1.22l-3.06.36,4.25,13.07,4.54-13.03-2.92-.4v-1.22h8.71v1.22l-2.99.43,4.68,12.89,3.89-12.85-3.2-.47v-1.22h7.27v1.22Z" stroke-width="0"/><path d="M119.52,144.07c.11,5.36,2.81,7.85,6.52,7.85,2.56,0,4.14-1.04,5.51-2.77l.72.5c-1.44,2.84-4.07,4.57-7.56,4.57-5.44,0-9.29-3.64-9.29-9.97s4.46-10.04,9.36-10.04c4.57,0,7.6,3.1,7.6,7.67,0,.9-.07,1.62-.25,2.2h-12.6ZM126.61,142.67c1.66,0,2.05-.83,2.05-2.34,0-2.66-1.69-4.71-4.14-4.71s-4.68,2.12-4.97,7.05h7.06Z" stroke-width="0"/><path d="M162.68,149.47c-1.3,3.02-3.82,4.75-7.56,4.75-5.36,0-9.14-3.78-9.14-9.97s4.5-10.04,9.65-10.04c3.6,0,6.48,2.16,7.02,5.15-.29,1.08-.9,1.55-1.91,1.55-1.26,0-2.02-.76-2.27-2.23l-.65-2.77c-.65-.22-1.26-.29-1.91-.29-3.49,0-5.9,3.02-5.9,8.24s2.7,8.06,6.52,8.06c2.23,0,4.1-.97,5.4-2.81l.76.36Z" stroke-width="0"/><path d="M184.89,151.95c-.86,1.62-2.02,2.2-3.64,2.2-2.02,0-3.31-1.19-3.67-3.13-2.09,2.12-3.49,3.2-6.01,3.2-2.95,0-5.18-1.73-5.18-4.82,0-2.66,1.51-4.43,6.77-6.23,1.22-.36,2.81-.83,4.32-1.19v-1.48c0-3.85-1.04-4.9-3.74-4.9-.65,0-1.33.07-2.12.29l-.61,2.66c-.29,1.51-1.04,2.23-2.16,2.23s-1.76-.54-1.91-1.58c.61-3.1,3.53-5,7.96-5s6.37,1.94,6.37,6.88v8.86c0,1.8.54,2.38,1.37,2.38.65,0,1.04-.29,1.66-1.01l.61.65ZM177.48,143.13c-1.3.36-2.52.76-3.28,1.04-3.17,1.26-4,2.84-4,4.64,0,2.12,1.26,3.06,3.06,3.06,1.3,0,2.2-.5,4.21-2.12v-6.62Z" stroke-width="0"/><path d="M208.69,152.53v1.15h-9.4v-1.15l2.81-.4c.04-2.02.07-4.82.07-6.8v-4.1c0-3.38-1.01-4.54-3.13-4.54-1.55,0-3.24.76-5.22,2.56v6.08c0,1.91.04,4.79.07,6.8l2.59.4v1.15h-9.4v-1.15l2.81-.4c.07-2.05.11-4.93.11-6.8v-2.3c0-2.27-.07-3.64-.14-5.29l-3.02-.29v-1.08l6.08-2.12.54.36.29,3.24c2.16-2.41,4.61-3.64,7.02-3.64,3.35,0,5.22,2.09,5.22,7.06v4.07c0,1.98.04,4.79.07,6.8l2.63.4Z" stroke-width="0"/><path d="M214.16,126.86c0,1.58-.68,4.86-.9,6.37l-.65,3.49h-1.15l-.68-3.49c-.25-1.51-.86-4.82-.86-6.37,0-1.69.79-2.45,2.09-2.45s2.16.76,2.16,2.45Z" stroke-width="0"/><path d="M229.42,151.95c-1.01,1.44-2.63,2.27-4.82,2.27-3.02,0-4.72-1.55-4.72-4.86,0-1.08.04-2.02.04-3.49v-9.5h-3.28v-1.3l3.49-.4,1.22-5.51h2.59l-.18,5.58h5.08v1.62h-5.11v12.99c0,2.05.9,2.92,2.34,2.92.9,0,1.62-.36,2.63-1.12l.72.79Z" stroke-width="0"/><path d="M245.59,144.07c.11,5.36,2.81,7.85,6.52,7.85,2.56,0,4.14-1.04,5.51-2.77l.72.5c-1.44,2.84-4.07,4.57-7.56,4.57-5.44,0-9.29-3.64-9.29-9.97s4.46-10.04,9.36-10.04c4.57,0,7.6,3.1,7.6,7.67,0,.9-.07,1.62-.25,2.2h-12.6ZM252.68,142.67c1.66,0,2.05-.83,2.05-2.34,0-2.66-1.69-4.71-4.14-4.71s-4.68,2.12-4.97,7.05h7.06Z" stroke-width="0"/><path d="M280.51,135.97l-2.38.47-6.59,17.46h-1.8l-7.13-17.6-2.23-.32v-1.22h9.75v1.22l-3.2.4,4.9,13.25,4.57-13.17-3.1-.47v-1.22h7.2v1.22Z" stroke-width="0"/><path d="M286.23,144.07c.11,5.36,2.81,7.85,6.52,7.85,2.56,0,4.14-1.04,5.51-2.77l.72.5c-1.44,2.84-4.07,4.57-7.56,4.57-5.44,0-9.29-3.64-9.29-9.97s4.46-10.04,9.36-10.04c4.57,0,7.6,3.1,7.6,7.67,0,.9-.07,1.62-.25,2.2h-12.6ZM293.32,142.67c1.66,0,2.05-.83,2.05-2.34,0-2.66-1.69-4.71-4.14-4.71s-4.68,2.12-4.97,7.05h7.06Z" stroke-width="0"/><path d="M324.46,152.53v1.15h-9.39v-1.15l2.81-.4c.04-2.02.07-4.82.07-6.8v-4.1c0-3.38-1.01-4.54-3.13-4.54-1.55,0-3.24.76-5.22,2.56v6.08c0,1.91.04,4.79.07,6.8l2.59.4v1.15h-9.4v-1.15l2.81-.4c.07-2.05.11-4.93.11-6.8v-2.3c0-2.27-.07-3.64-.14-5.29l-3.02-.29v-1.08l6.08-2.12.54.36.29,3.24c2.16-2.41,4.61-3.64,7.02-3.64,3.35,0,5.22,2.09,5.22,7.06v4.07c0,1.98.04,4.79.07,6.8l2.63.4Z" stroke-width="0"/><path d="M346.71,152.53v1.15h-9.4v-1.15l2.81-.4c.04-2.05.07-4.93.07-6.8v-2.3c0-2.23-.04-3.6-.11-5.33l-3.06-.29v-1.12l6.59-2.05.5.36-.07,5.36v5.36c0,1.91.04,4.79.07,6.8l2.59.4ZM339.37,127.33c0-1.48,1.19-2.48,2.66-2.48s2.63,1.01,2.63,2.48-1.19,2.52-2.63,2.52-2.66-1.04-2.66-2.52Z" stroke-width="0"/><path d="M383.28,152.53v1.15h-9.32v-1.15l2.7-.4c.04-2.02.07-4.82.07-6.8v-4.03c0-3.53-.97-4.61-3.1-4.61-1.55,0-3.17.76-5.08,2.59.07.61.11,1.26.11,1.98v4.07c0,1.98.04,4.79.07,6.8l2.59.4v1.15h-9.36v-1.15l2.81-.4c.04-2.02.07-4.82.07-6.8v-4c0-3.46-.9-4.64-3.06-4.64-1.66,0-3.24.86-5.04,2.63v6.01c0,1.91.04,4.79.07,6.8l2.59.4v1.15h-9.4v-1.15l2.81-.4c.07-2.05.11-4.93.11-6.8v-2.3c0-2.27-.07-3.64-.14-5.29l-3.02-.29v-1.08l6.08-2.12.54.36.29,3.24c2.05-2.34,4.39-3.64,6.77-3.64,2.52,0,4.17,1.15,4.86,3.71,2.16-2.63,4.54-3.71,7.02-3.71,3.42,0,5.26,2.05,5.26,6.91v4.21c0,1.98.04,4.79.07,6.8l2.63.4Z" stroke-width="0"/><path d="M405.21,151.95c-.86,1.62-2.02,2.2-3.64,2.2-2.02,0-3.31-1.19-3.67-3.13-2.09,2.12-3.49,3.2-6.01,3.2-2.95,0-5.18-1.73-5.18-4.82,0-2.66,1.51-4.43,6.77-6.23,1.22-.36,2.81-.83,4.32-1.19v-1.48c0-3.85-1.04-4.9-3.74-4.9-.65,0-1.33.07-2.12.29l-.61,2.66c-.29,1.51-1.04,2.23-2.16,2.23s-1.76-.54-1.91-1.58c.61-3.1,3.53-5,7.96-5s6.37,1.94,6.37,6.88v8.86c0,1.8.54,2.38,1.37,2.38.65,0,1.04-.29,1.66-1.01l.61.65ZM397.79,143.13c-1.3.36-2.52.76-3.28,1.04-3.17,1.26-4,2.84-4,4.64,0,2.12,1.26,3.06,3.06,3.06,1.3,0,2.2-.5,4.21-2.12v-6.62Z" stroke-width="0"/><path d="M425.8,137.05l-4.18-.22c.76,1.04,1.15,2.34,1.15,3.89,0,4-2.92,6.55-7.42,6.55-1.3,0-2.45-.18-3.42-.58-.68.86-.97,1.58-.97,2.48,0,1.19.61,1.91,2.63,1.91h5.29c4.61,0,6.62,1.91,6.62,5.11,0,3.56-3.42,6.91-10.15,6.91-5.87,0-8.32-2.12-8.32-4.89,0-1.69,1.12-3.06,3.78-4.28-1.66-.54-2.56-1.48-2.56-3.13,0-1.4.76-2.7,2.77-4.5-1.94-1.08-3.06-2.99-3.06-5.58,0-4.03,2.88-6.52,7.42-6.52,2.2,0,4,.54,5.26,1.58l4.5-1.58.65.4v2.45ZM414.17,154.4c-1.15,0-1.87-.04-2.63-.18-.97,1.08-1.44,2.05-1.44,3.38,0,2.63,2.09,3.92,5.26,3.92,4.57,0,6.95-1.76,6.95-4.03,0-1.69-1.01-3.1-3.71-3.1h-4.43ZM419.21,140.65c0-3.13-1.4-5.18-3.82-5.18s-3.85,2.09-3.85,5.29,1.4,5.25,3.74,5.25c2.48,0,3.92-2.16,3.92-5.36Z" stroke-width="0"/><path d="M438.04,152.53v1.15h-9.4v-1.15l2.81-.4c.04-2.05.07-4.93.07-6.8v-2.3c0-2.23-.04-3.6-.11-5.33l-3.06-.29v-1.12l6.59-2.05.5.36-.07,5.36v5.36c0,1.91.04,4.79.07,6.8l2.59.4ZM430.7,127.33c0-1.48,1.19-2.48,2.66-2.48s2.63,1.01,2.63,2.48-1.19,2.52-2.63,2.52-2.66-1.04-2.66-2.52Z" stroke-width="0"/><path d="M462.95,152.53v1.15h-9.39v-1.15l2.81-.4c.04-2.02.07-4.82.07-6.8v-4.1c0-3.38-1.01-4.54-3.13-4.54-1.55,0-3.24.76-5.22,2.56v6.08c0,1.91.04,4.79.07,6.8l2.59.4v1.15h-9.4v-1.15l2.81-.4c.07-2.05.11-4.93.11-6.8v-2.3c0-2.27-.07-3.64-.14-5.29l-3.02-.29v-1.08l6.08-2.12.54.36.29,3.24c2.16-2.41,4.61-3.64,7.02-3.64,3.35,0,5.22,2.09,5.22,7.06v4.07c0,1.98.04,4.79.07,6.8l2.63.4Z" stroke-width="0"/><path d="M470.37,144.07c.11,5.36,2.81,7.85,6.51,7.85,2.56,0,4.14-1.04,5.51-2.77l.72.5c-1.44,2.84-4.07,4.57-7.56,4.57-5.43,0-9.29-3.64-9.29-9.97s4.46-10.04,9.36-10.04c4.57,0,7.59,3.1,7.59,7.67,0,.9-.07,1.62-.25,2.2h-12.6ZM477.46,142.67c1.66,0,2.05-.83,2.05-2.34,0-2.66-1.69-4.71-4.14-4.71s-4.68,2.12-4.97,7.05h7.06Z" stroke-width="0"/><path d="M515.76,135.9l-2.23.36-6.98,18.43c-2.38,6.44-5.11,8.82-7.81,8.82-1.87,0-3.56-1.04-3.6-2.56.25-1.19,1.48-1.8,2.63-1.8s2.02.61,2.95,1.66l.4.4c1.69-1.33,2.84-3.35,3.85-5.94l.07-.22-7.63-18.86-2.2-.29v-1.15h9.72v1.19l-3.24.32,5.15,14.11,4.86-14.07-3.49-.4v-1.15h7.56v1.15Z" stroke-width="0"/><path d="M521.2,144.07c.11,5.36,2.81,7.85,6.51,7.85,2.56,0,4.14-1.04,5.51-2.77l.72.5c-1.44,2.84-4.07,4.57-7.56,4.57-5.43,0-9.29-3.64-9.29-9.97s4.46-10.04,9.36-10.04c4.57,0,7.59,3.1,7.59,7.67,0,.9-.07,1.62-.25,2.2h-12.6ZM528.29,142.67c1.66,0,2.05-.83,2.05-2.34,0-2.66-1.69-4.71-4.14-4.71s-4.68,2.12-4.97,7.05h7.05Z" stroke-width="0"/><path d="M549.57,151.95c-1.01,1.44-2.63,2.27-4.82,2.27-3.02,0-4.71-1.55-4.71-4.86,0-1.08.04-2.02.04-3.49v-9.5h-3.28v-1.3l3.49-.4,1.22-5.51h2.59l-.18,5.58h5.08v1.62h-5.11v12.99c0,2.05.9,2.92,2.34,2.92.9,0,1.62-.36,2.63-1.12l.72.79Z" stroke-width="0"/></g></svg>