<svg xmlns="http://www.w3.org/2000/svg" width="553.709" height="177.305" viewBox="0 0 553.709 177.305">
  <path id="パス_1066" data-name="パス 1066" d="M-255.3-16.582a54.988,54.988,0,0,0,3.594-5.254,49.475,49.475,0,0,0,3.848-7.3q2.441.977,4.258,1.875.566.273.566.547,0,.352-.625.488a13.259,13.259,0,0,1-1.328.059q-3.77,4.609-6.25,7.129-1.211,1.191-2.637,2.4l.625-.039q4.2-.176,6.23-.352a18.511,18.511,0,0,0-1.836-3.613l.371-.254a17.744,17.744,0,0,1,4.1,3.4,3.509,3.509,0,0,1,1.016,2.246,2.95,2.95,0,0,1-.527,1.641,1.916,1.916,0,0,1-1.5,1.055q-.664,0-.84-1.23a15.873,15.873,0,0,0-.469-2.266q-1.406.449-2.871.859v8.359q0,4.453.078,9.434a.785.785,0,0,1-.273.586,4.143,4.143,0,0,1-1.973.293h-.586a1.383,1.383,0,0,1-.566-.1q-.2-.1-.234-.469.2-5.605.215-9.453V-9.375a4.427,4.427,0,0,1-1.211.332Q-255.3-5.566-256.1-3.77a35.8,35.8,0,0,1-3.223,5.547l-.43-.254a50.125,50.125,0,0,0,1.934-7.988,41.926,41.926,0,0,0,.586-4.941q2.656.7,3.281.879.566.2,1.035.41v-4.3l-1.523.332-1.5.332-1.387.293q-.234,1.367-.7,1.367-.371,0-.547-.645-.2-.7-.762-3.887,1.465.1,2.246.1.449,0,1.289-.039Zm.605-9.3q.82.527,1.289.9a2.167,2.167,0,0,1,1.016,1.68,3.382,3.382,0,0,1-.391,1.465q-.664,1.445-1.562,1.445a.826.826,0,0,1-.645-.371,3.756,3.756,0,0,1-.469-1.016,13.058,13.058,0,0,0-3.633-5.762l.293-.41a24.406,24.406,0,0,1,3.145,1.484A30.915,30.915,0,0,0-254.4-29.3a22.772,22.772,0,0,0,1.27-4.453q3.262,1.035,4.688,1.621.684.273.684.605,0,.313-.508.469a5.827,5.827,0,0,1-1.484.117q-.84.9-1.27,1.367a37.6,37.6,0,0,1-3.027,3.164Q-254.3-26.191-254.691-25.879ZM-226.449.684h.41q.957-1.426,1.953-2.793,1.328,1.582,2.559,3.184a.537.537,0,0,1,.1.273q0,.215-.352.215h-23.008a19.592,19.592,0,0,0-2.6.215l-.254-1.445a11.719,11.719,0,0,0,2.891.352h2.617v-26.7q0-3.711-.2-6.68,2.168,1.016,4.238,2.227h7.617q.977-1.133,1.934-2.207,1.641,1.152,3.086,2.266.469.391.469.645,0,.449-1.465,1.289Zm-3.691,0V-10.078H-238.5V.684Zm0-11.641v-8.984H-238.5v8.984Zm0-9.863v-8.77H-238.5v8.77Zm-18.809,9.473.332-.312a22.976,22.976,0,0,1,3.047,2.832A6.069,6.069,0,0,1-243.754-5.2a3.369,3.369,0,0,1-.8,2.109,2.115,2.115,0,0,1-1.543.957q-.625,0-.762-1.426a35.562,35.562,0,0,0-.508-3.77,10.231,10.231,0,0,0-.9-2.852A9.208,9.208,0,0,0-248.949-11.348ZM-215.73-14l-.312-.488a48.906,48.906,0,0,0,10.82-10.625q4.043-5.371,4.941-8.535,1.777.371,2.559.547a15.985,15.985,0,0,1,3.242.859.391.391,0,0,1,.234.332q0,.352-.547.547a5.344,5.344,0,0,1-1.133.254,23.809,23.809,0,0,0,8.184,7.7,30.2,30.2,0,0,0,10.1,3.965l-.059.547a4.2,4.2,0,0,0-1.348.566,7.331,7.331,0,0,0-2.168,3.555,33.513,33.513,0,0,1-4.687-2.793,32.321,32.321,0,0,1-5.547-5.176,27.369,27.369,0,0,1-2.578-3.457q-.957-1.582-2.48-4.434a43.865,43.865,0,0,1-9.316,10.586A44.6,44.6,0,0,1-215.73-14Zm9.824-3.75-.312-1.406a16.327,16.327,0,0,0,2.773.293h7.969q1.27-1.484,2.52-2.91,1.992,1.465,4.023,3.145a.694.694,0,0,1,.254.41q0,.234-.508.234h-14.336A15.451,15.451,0,0,0-205.906-17.754Zm-3.594,3.125q2.344,1.113,4.473,2.363h15.078q1-1.211,2.109-2.422,1.641,1.172,3.2,2.422.449.391.449.645,0,.43-1.426,1.016,0,5.957.176,12.031a2.081,2.081,0,0,1,.02.215.7.7,0,0,1-.508.723,8.785,8.785,0,0,1-2.734.313q-.645,0-.82-.352a1.642,1.642,0,0,1-.059-.547V.176h-15.937V1.6a.911.911,0,0,1-.2.684,4.859,4.859,0,0,1-2.363.43q-.41.02-.488.02a1.191,1.191,0,0,1-.781-.215.879.879,0,0,1-.2-.664l.039-2.637q.117-6.992.117-8.77Q-209.344-12.422-209.5-14.629Zm4.023,3.242V-.7h15.938V-11.387Zm33.648-7.4a4.39,4.39,0,0,0,3.77,2.109,14.843,14.843,0,0,0,3.066-.449q1.465-.352,3.438-.859A31.566,31.566,0,0,0-162-23.633q-.488-1.973-3.418-2.891a3.017,3.017,0,0,1,1.66-.449,9.07,9.07,0,0,1,2.539.43q3.574,1.055,3.574,2.832a4.22,4.22,0,0,1-.215,1.074,10.047,10.047,0,0,0-.312,1.484q-.1,1.055-.234,2.383,4.492-1.074,10.254-2.207.156-2.91.156-4.9a13.547,13.547,0,0,0-.137-2.227q-.43-2.227-3.4-3.145a4.681,4.681,0,0,1,.508-.352,2.616,2.616,0,0,1,1-.156,10.154,10.154,0,0,1,4.1,1.055q2.266,1.035,2.266,2.383a3.681,3.681,0,0,1-.371,1.309,22.247,22.247,0,0,0-1.074,5.469q2.051-.43,2.734-.625a17.891,17.891,0,0,0,1.836-.7,2.818,2.818,0,0,1,1.172-.312,5.263,5.263,0,0,1,1.816.449q2.48,1,2.48,2.129t-1.5,1.133q-.391,0-1.914-.078-1.113-.059-1.914-.059-1.563,0-4.941.332a49.3,49.3,0,0,1-1.211,8.379,5.369,5.369,0,0,1-1.992,2.93,3.033,3.033,0,0,1-1.719.605,1.134,1.134,0,0,1-1.074-.605,3.572,3.572,0,0,1-.215-.684A3.039,3.039,0,0,0-152-9.668,15.971,15.971,0,0,0-154-11.719q-1.23-1.133-1.895-1.777l.234-.352q4.668,2.5,5.566,2.5.41,0,.664-.684a34.992,34.992,0,0,0,1.113-6.895q-1.992.234-4.668.8a47.131,47.131,0,0,0-5.547,1.523q-.176,2.832-.176,5.313a25.388,25.388,0,0,0,.313,4.824,3.841,3.841,0,0,0,1.367,2.441,5.888,5.888,0,0,0,2.969.9q.781.078,1.914.078a20.23,20.23,0,0,0,7.168-1.074,4.53,4.53,0,0,1,1.309-.352,3.7,3.7,0,0,1,1.973.742q1.406.918,1.406,1.914,0,1.035-1.23,1.406A19.482,19.482,0,0,1-144.8.117q-1.992.2-4.1.2a24.157,24.157,0,0,1-7.383-.859q-3.926-1.348-4.687-6.172a51.559,51.559,0,0,1-.469-6.211q-.02-.82-.059-2.676a23.474,23.474,0,0,0-4.766,2.07,2.514,2.514,0,0,1-1.211.391q-1.582,0-3.2-2.148a4.866,4.866,0,0,1-1.25-2.715A4.2,4.2,0,0,1-171.828-18.789Zm58.688,6.367a37.5,37.5,0,0,1-5.391,2.559l-.273-.449a43.666,43.666,0,0,0,3.867-2.754,30.846,30.846,0,0,0,4.609-4.766h-5.078a12.346,12.346,0,0,0-2.07.176l-.391-1.367a13.483,13.483,0,0,0,2.5.313h5.684a18.771,18.771,0,0,0,1.582-2.773h-4.062v.781a.347.347,0,0,1-.156.293,5.309,5.309,0,0,1-2.227.273,1.3,1.3,0,0,1-.84-.215,1.079,1.079,0,0,1-.2-.41q.117-2.266.117-3.711,0-3.359-.156-5.117a32.336,32.336,0,0,1,3.73,1.738h2.715v-3.027h-5.977a16.68,16.68,0,0,0-2.578.2l-.352-1.426a20.054,20.054,0,0,0,2.93.352h17.93q1.211-1.367,2.48-2.7,1.406,1.035,1.836,1.387a2.667,2.667,0,0,0,.254.2q2.09,1.523,2.09,1.8,0,.2-.254.2h-9.141v3.027h2.91q.8-.9,1.7-1.738,1.426.957,2.773,2.031.254.215.254.352,0,.234-.469.547a6.5,6.5,0,0,0-.723.566q-.02.9-.02,1.367,0,.391.02,1.68.02,1.133.039,1.875a.581.581,0,0,1-.156.371,1.9,1.9,0,0,1-.664.234q1.465.918,3.184,2.207a.48.48,0,0,1,.176.293q0,.234-.352.234h-10.254A15.183,15.183,0,0,0-100-16.562a16.86,16.86,0,0,0,5.508,2.07,24,24,0,0,0,4.043.566v.352a3.33,3.33,0,0,0-1.328.9,6.7,6.7,0,0,0-.879,2.246,22.3,22.3,0,0,1-4.18-1.816A16.706,16.706,0,0,1-98.3-13.262l.02.957q.039,1.387.078,2.93a.638.638,0,0,1-.508.508,6.727,6.727,0,0,1-1.953.215q-.8,0-.879-.488v-1.172H-109.7v2.871q0,.566.176.684a2.793,2.793,0,0,0,1.309.254q1.27.078,3.242.078,6.074,0,7.441-.469a1.421,1.421,0,0,0,.84-.762,28.844,28.844,0,0,0,1.25-3.105l.43.039-.059,2.773q0,.176.02.371.02.332.586.566a2.5,2.5,0,0,1,1.211.723.992.992,0,0,1,.156.527,1.4,1.4,0,0,1-.859,1.25,9.881,9.881,0,0,1-3.926.664q-3.047.117-6.875.117a31.23,31.23,0,0,1-6.855-.449,1.744,1.744,0,0,1-1.27-1.27,6.365,6.365,0,0,1-.137-1.191l.039-.625V-9.98A14.1,14.1,0,0,0-113.141-12.422Zm.234-.137q1.465.508,3.379,1.367h7.988V-14.2h-8.984A28.306,28.306,0,0,1-112.906-12.559Zm3.457-2.52h7.832l.547-.332.234-.156a13.581,13.581,0,0,1-1.582-2.266H-106.7A21.161,21.161,0,0,1-109.449-15.078Zm3.457-3.633h9.57q.957-1.035,1.719-1.8-1.035.078-1.348.078a1.016,1.016,0,0,1-.8-.254.525.525,0,0,1-.137-.293v-.508H-104.2A25.967,25.967,0,0,1-105.992-18.711Zm9-3.652v-4.609h-2.969v4.609Zm-6.094,0v-4.609h-2.988v4.609Zm-6.094,0v-4.609h-2.988v4.609Zm6.094-8.516h-2.988v3.027h2.988Zm-23.691-1.777.313-.293a23.313,23.313,0,0,1,5.84,3.477q1.855,1.641,1.855,2.91a3.887,3.887,0,0,1-.527,1.836q-.84,1.562-1.914,1.563a.836.836,0,0,1-.7-.332,1.738,1.738,0,0,1-.293-.625l-.254-.9A26.236,26.236,0,0,0-126.773-32.656Zm-.781,16.621-.391-1.348a20.258,20.258,0,0,0,2.09.332h3.027q.9-1.074,1.855-2.187,1.641,1.211,3.008,2.3.352.313.352.488,0,.254-.527.645-.039.039-.547.371l-.273.156v9.746a7.288,7.288,0,0,0,1.328,1.875,8.808,8.808,0,0,0,5.215,1.934,50.091,50.091,0,0,0,5.02.2q8.262,0,17.441-.723v.41a3.366,3.366,0,0,0-1.66.957A3.482,3.482,0,0,0-92.3.742q-.078.449-.137,1.113h-.937q-6.055.078-6.6.078-6.191,0-10.059-.293a11.462,11.462,0,0,1-7.129-2.793,9.36,9.36,0,0,1-2.07-2.812q-.352-.684-.723-1.6-1.465,2.168-2.4,3.418A36.657,36.657,0,0,1-124.918.82q.02.625.02.957,0,.879-.449.879-.332,0-.9-1.113-.664-1.309-1.816-3.926a22.156,22.156,0,0,0,5.391-2.832l.039-10.957h-3.223A9.053,9.053,0,0,0-127.555-16.035Zm58.355,3.32a1.758,1.758,0,0,1-.176.254,1.721,1.721,0,0,1-1.152.742.748.748,0,0,1-.586-.391,4.967,4.967,0,0,1-.371-.937q-.2-.625-.684-1.914A11.987,11.987,0,0,0-73.926-18.2v9.3l.02,4.57V.156l.02,1.973a.625.625,0,0,1-.234.586,5.472,5.472,0,0,1-2.52.371,2.032,2.032,0,0,1-.625-.078q-.273-.1-.273-.605.137-4.18.176-11.016l.137-6.348A45.175,45.175,0,0,1-80.2-9.648a40.456,40.456,0,0,1-3.359,4.258l-.41-.293a50.018,50.018,0,0,0,2.6-5.02,63.642,63.642,0,0,0,3.555-10.684H-80.8a10.763,10.763,0,0,0-2.207.215l-.2-1.367a10.726,10.726,0,0,0,2.48.273h3.359v-5.879a52.474,52.474,0,0,1-5.723.7l-.137-.449a53.3,53.3,0,0,0,7.715-3.281q1.66-.879,2.637-1.523.43-.312,1.23-.957,2.422,1.484,3.789,2.461.469.332.469.586,0,.449-.625.449a8.86,8.86,0,0,1-1.621-.254q-2.559.977-4.3,1.445v6.7h.645q.938-1.25,1.855-2.383,1.5,1.328,2.871,2.734l.117.273a35.242,35.242,0,0,0,4.648-6.66,28.92,28.92,0,0,0,1.738-3.594q.215-.547.527-1.6,3.105.723,4.57,1.172.723.215.723.566,0,.371-.684.547-.1.02-1.25.176-.918,1.5-1.6,2.441h5.781q1.016-.977,1.895-1.816,1.7,1.133,3.2,2.3.41.352.41.547,0,.332-.684.605-.078.039-.684.234-.293.078-.566.176a49.63,49.63,0,0,1-3.184,4.219,29.048,29.048,0,0,1-4.043,3.867q1.836.391,2.891.664a5.2,5.2,0,0,1,1.211.391.393.393,0,0,1,.176.313q0,.332-.586.547a9.1,9.1,0,0,1-1.094.234q-1.445,1.8-2.187,2.559h6.094q1-1.035,1.973-1.992,1.563,1.055,3.105,2.207.41.371.41.586,0,.332-.566.625-.234.117-1.152.449-1.6,2.5-2.656,3.828a24.927,24.927,0,0,1-2.52,2.7A29.417,29.417,0,0,1-64.512,1.367a54.658,54.658,0,0,1-7.4,1.465l-.2-.488A50.065,50.065,0,0,0-60.7-2.676a28.722,28.722,0,0,0,5.469-4.434,25.622,25.622,0,0,0,2.266-2.754q.488-.684,1.836-3.008h-6.973a38.042,38.042,0,0,1-3.047,2.578,16.671,16.671,0,0,1,2.207.957,3.965,3.965,0,0,1,1.484,1.211,2.452,2.452,0,0,1,.293,1.211A2.328,2.328,0,0,1-57.7-5.43a1.61,1.61,0,0,1-1.191.7q-1,0-1.328-1.953a5.667,5.667,0,0,0-1.5-3.184q-1.7,1.25-3.437,2.285A40.388,40.388,0,0,1-70.469-5.1l-.234-.43a53.034,53.034,0,0,0,5.449-4.121,40.176,40.176,0,0,0,5.918-6.6,9.737,9.737,0,0,0,1.016-1.7A33.019,33.019,0,0,1-69.2-12.715Zm.41-.879a37.218,37.218,0,0,0,6.66-4.375A30.531,30.531,0,0,0-57.6-22.578a39.125,39.125,0,0,0,3.574-5.137h-6.367a37.351,37.351,0,0,1-2.48,2.871,14.3,14.3,0,0,1,2.148.742q1.523.7,1.523,1.8a2.784,2.784,0,0,1-.508,1.641,1.4,1.4,0,0,1-1.172.742.753.753,0,0,1-.664-.449,4.227,4.227,0,0,1-.273-.742,11.548,11.548,0,0,0-.82-2.246A6.184,6.184,0,0,0-63.4-24.3a28.263,28.263,0,0,1-2.676,2.363A37.587,37.587,0,0,1-70.2-19.258l-.273-.371q1.23-1.172,1.8-1.777l-.137.02h-5.117V-19a23.05,23.05,0,0,1,2.656,1.348A8.078,8.078,0,0,1-69.18-16a2.631,2.631,0,0,1,.469,1.621A4.179,4.179,0,0,1-68.789-13.594ZM-21.977.215l-.2-.586a24.743,24.743,0,0,0,5.41-2.3A15.7,15.7,0,0,0-9.73-10.645a15.744,15.744,0,0,0,.977-5.586A11.529,11.529,0,0,0-10.2-22.168a9.355,9.355,0,0,0-6.27-4.473,14.6,14.6,0,0,0-3.516-.43q-.605,0-1.484.078a8.582,8.582,0,0,1,1.094,1.68,5,5,0,0,1,.527,2.266,21.513,21.513,0,0,1-2.012,7.734A43.771,43.771,0,0,1-26.117-7.48a14.937,14.937,0,0,1-3.4,3.77,3.39,3.39,0,0,1-1.953.7,2.339,2.339,0,0,1-1.836-.82A6.915,6.915,0,0,1-34.4-6.309,9.042,9.042,0,0,0-36.02-9.551,8.671,8.671,0,0,1-37.094-11.6a7.035,7.035,0,0,1-.449-2.539,10.458,10.458,0,0,1,1.152-4.551,15.867,15.867,0,0,1,6.094-6.66,19.5,19.5,0,0,1,5.742-2.383,20.944,20.944,0,0,1,5.02-.625,16.666,16.666,0,0,1,8.926,2.383A12.414,12.414,0,0,1-6.117-21.25a12.7,12.7,0,0,1,1.5,6.152A13.235,13.235,0,0,1-8.187-5.82,18.713,18.713,0,0,1-17.367-.7,45.511,45.511,0,0,1-21.977.215Zm-.312-27.07a15.475,15.475,0,0,0-3.437,1.074A15.788,15.788,0,0,0-31.2-21.543a13.194,13.194,0,0,0-2.793,5.137,11.271,11.271,0,0,0-.449,3.086,7.952,7.952,0,0,0,1.406,4.8q.781,1.094,1.445,1.094.859,0,2.48-1.914a36.135,36.135,0,0,0,3.867-5.9,36.814,36.814,0,0,0,2.91-6.621,10.292,10.292,0,0,0,.566-2.852,4.811,4.811,0,0,0-.176-1.309q-.078-.215-.205-.527A1.309,1.309,0,0,0-22.289-26.855ZM28.918-5.7a22.285,22.285,0,0,0,5.859,2.871,33.18,33.18,0,0,0,7.07,1.289l-.039.43A4.621,4.621,0,0,0,39.621.43a8.674,8.674,0,0,0-1.094,2.48,29.585,29.585,0,0,1-4.492-1.855,23.533,23.533,0,0,1-6.27-4.844,17.7,17.7,0,0,1-3.75-5.9q-.2-.527-.508-1.582H19.641v9.219a78.745,78.745,0,0,0,8.086-.957l.078.469q-2.93,1.23-6.113,2.266Q18.547.742,12.863,2.188q-.273,1.484-.8,1.484-.312,0-.508-.605-.371-1.152-1.172-4.59.742.039,1.074.039.488,0,2.93-.137.8-.039,1.621-.156V-11.27H11.223a30.9,30.9,0,0,1-2.09,7.344,23.333,23.333,0,0,1-2,3.809,26.465,26.465,0,0,1-2.783,3.4l-.332-.273a28.16,28.16,0,0,0,2.051-5.02A53.578,53.578,0,0,0,7.824-14.648q.137-3.809.137-14.492,0-2.4-.156-4.355,2.344,1.113,4.609,2.363H33.9q.9-1.035,1.855-2.09,1.68,1.074,3.086,2.09.371.293.371.527,0,.293-.469.664-.2.156-.859.566,0,2.441.1,5.781a.745.745,0,0,1-.547.664,11.233,11.233,0,0,1-2.461.215.857.857,0,0,1-.684-.215.859.859,0,0,1-.137-.469v-.8H11.965q-.039,4.551-.059,5.469a58.109,58.109,0,0,1-.547,6.582h6.367v-5.7H15.3a21.384,21.384,0,0,0-2.812.176l-.2-1.367a13.845,13.845,0,0,0,3.008.313h2.422v-1.758a19.868,19.868,0,0,0-.2-2.812q1.523.137,4.395.469.781.1.781.488,0,.273-.508.508a1.79,1.79,0,0,1-.234.1q-.2.078-.605.254v2.754h5.469v-2.051a20.612,20.612,0,0,0-.156-2.559q4.258.449,4.688.586.43.156.43.43t-.449.488q-.02,0-.488.176-.215.078-.43.176v2.754H32.9q1.035-1.367,2.148-2.676,2.012,1.348,4.063,2.988a.59.59,0,0,1,.156.352q0,.215-.391.215H30.422v5.7h3.594q1.094-1.426,2.324-2.871,2.09,1.445,4.316,3.145a.661.661,0,0,1,.156.352q0,.254-.352.254H33l.957.449q1.934.9,2.754,1.367.508.293.508.605a.376.376,0,0,1-.254.352,7.208,7.208,0,0,1-1.8.2A34.949,34.949,0,0,1,28.918-5.7ZM28.2-6.309a16.682,16.682,0,0,0,4.668-4.961h-8.5A11.269,11.269,0,0,0,28.2-6.309ZM21.359-17.852v5.7h5.469v-5.7Zm12.793-7.227v-5.2H12.023q-.02,1.289-.039,3.359l-.02,1.836ZM72.508-15.9v6h1.426q.977-1.25,1.953-2.383L77.41-10.9l1.563,1.426a.523.523,0,0,1,.1.254q0,.2-.273.2H72.508V-6.66q0,3.75.078,7.52a1.079,1.079,0,0,1-.078.479.783.783,0,0,1-.332.283,5.78,5.78,0,0,1-2.187.273,1.568,1.568,0,0,1-.742-.156q-.273-.137-.293-.625l.02-2.07.02-3.008.02-2.6V-9.023H64.461a25.16,25.16,0,0,1-.508,2.969A11.7,11.7,0,0,1,59.324.586,19.4,19.4,0,0,1,55.75,2.539l-.391-.41a15.509,15.509,0,0,0,4.863-6.25,15.035,15.035,0,0,0,.84-3.926l.078-.977H58.484a14.006,14.006,0,0,0-2.676.234L55.5-10.2a11.9,11.9,0,0,0,2.988.293H61.2q.1-2.539.1-3.906,0-1-.059-2.09H59.207a12.2,12.2,0,0,0-2.48.215l-.293-1.406a11,11,0,0,0,2.773.313H72.43q1.074-1.25,2.09-2.441,1.738,1.348,3.359,2.813a.522.522,0,0,1,.137.273q0,.234-.293.234Zm-3.5,0H64.617q0,.605.039,1.641v.781q0,1.582-.137,3.574h4.492ZM61.16-21.289H53.973V2.383a.858.858,0,0,1-.312.7,5.148,5.148,0,0,1-2.3.332h-.2a2.222,2.222,0,0,1-.84-.137q-.312-.117-.332-.645.273-7.676.273-25.586,0-6.8-.176-10.781,2.227.957,4.375,2.09h6.348q.957-1.133,1.875-2.227,1.465,1.035,2.871,2.109.43.352.43.605t-.41.547q-.176.117-.859.488,0,5.859.117,9.746a.757.757,0,0,1-.293.625,5.369,5.369,0,0,1-2.285.313,2.54,2.54,0,0,1-.781-.1q-.273-.117-.312-.605Zm0-.879v-4.043H53.973v4.043Zm0-4.922v-3.672H53.973v3.672Zm18.828,5.8h-7.4v.977a1,1,0,0,1-.127.42.614.614,0,0,1-.322.205,4.395,4.395,0,0,1-1.7.215l-.41.02h-.156a1.833,1.833,0,0,1-.684-.117q-.273-.117-.312-.625.137-3.437.137-6.875,0-4.57-.176-6.582,2.07.938,4,2.012h6.719q1-1.133,1.914-2.227,1.465.977,2.949,2.031.566.371.566.664,0,.273-.43.605-.117.1-.781.586v17.832q.02,7.832.1,11.855A3.245,3.245,0,0,1,83.328,1.6a4.242,4.242,0,0,1-2.07,1.27,19.7,19.7,0,0,1-2.871.547,8.575,8.575,0,0,0-.293-1.777A2.625,2.625,0,0,0,77.313.547a6.024,6.024,0,0,0-1.953-.84q-.527-.156-1.25-.332l.02-.508q3.613.156,4.336.156.332,0,1.016-.02.527,0,.527-.312l-.02-.605Zm0-.879v-4.043h-7.4v4.043Zm0-4.922v-3.672h-7.4v3.672Zm23.8,11.895.469.176-.273,1.172q-1.367,5.742-1.719,7.5a14.092,14.092,0,0,0-.293,2.656q0,.2.078,1.016a3.66,3.66,0,0,1,.02.43,4.012,4.012,0,0,1-.254,1.7,1.5,1.5,0,0,1-1.426.84q-1.426,0-2.246-1.934a22.531,22.531,0,0,1-1.465-8.77,36.465,36.465,0,0,1,.273-4.277q.313-2.52,1.387-7.539a26.154,26.154,0,0,0,.7-4.473,7,7,0,0,0-1.25-3.809,2.967,2.967,0,0,1,1.484.527,10.513,10.513,0,0,1,2.539,2.637,5.44,5.44,0,0,1,1.23,3.008,3.772,3.772,0,0,1-.41,1.563q-.078.156-.469.918a23.833,23.833,0,0,0-2.91,10.9,14.6,14.6,0,0,0,.664,4.551q1.055-2.227,1.6-3.477Q103.383-14.277,103.793-15.2Zm4.453-10.156.332-.371a7.2,7.2,0,0,0,1.582.8,6.718,6.718,0,0,0,2.129.313,19.887,19.887,0,0,0,5.547-.879,12.878,12.878,0,0,0,2.578-1,2.547,2.547,0,0,1,1.113-.41,3.288,3.288,0,0,1,1.7.605q1.523.938,1.523,2.012a1.08,1.08,0,0,1-.547,1.016,4.918,4.918,0,0,1-1.445.352,21.977,21.977,0,0,0-5.234,1.406q-2.422.957-3.418,1.445A23.4,23.4,0,0,0,112-18.867l-.332-.371q.469-.41,1.738-1.543,1.387-1.23,1.992-1.738-.879.059-1.27.059a7.245,7.245,0,0,1-3.867-1.055A8.708,8.708,0,0,1,108.246-25.352Zm.176,12.188.566.137a13.227,13.227,0,0,0-.137,1.719,5.705,5.705,0,0,0,1.621,4.453,5.58,5.58,0,0,0,2.324,1.27,16.136,16.136,0,0,0,4.16.469,22.987,22.987,0,0,0,3.613-.273,7.746,7.746,0,0,0,1.309-.312l.9-.332a2.07,2.07,0,0,1,.723-.156,3.017,3.017,0,0,1,1.523.547,4.425,4.425,0,0,1,1.27,1.172,2,2,0,0,1,.371,1.094,1.522,1.522,0,0,1-1.23,1.523,20.845,20.845,0,0,1-5.469.488q-12.168,0-12.168-8.008A12.4,12.4,0,0,1,108.422-13.164Zm42.3-12.578H166.23q1.016-1.211,2.148-2.324,1.66,1.094,3.184,2.266.488.332.488.605a.45.45,0,0,1-.156.313q-.137.117-1.289.938V-9.512q0,1.523.059,6.465v1.563a3.745,3.745,0,0,1-.586,1.855,4.879,4.879,0,0,1-2.207,1.465,15.042,15.042,0,0,1-3.359.586,7.712,7.712,0,0,0-.371-1.758,2.233,2.233,0,0,0-1-1.055,12.492,12.492,0,0,0-2.949-.937q-.488-.1-2.07-.449V-2.3q4.355.2,7.852.371a.828.828,0,0,0,.625-.234.813.813,0,0,0,.137-.508V-24.863H143.262v19.59q0,1.055.039,6.582-.02.586-.312.742a5.078,5.078,0,0,1-1.5.254q-1.016.1-1.328.1a.871.871,0,0,1-.723-.234,1.057,1.057,0,0,1-.117-.469q.2-4.941.2-16.582,0-8.418-.059-10.586-.039-1.074-.156-2.676,2.441,1.094,4.746,2.4h5.137a38.921,38.921,0,0,0,2.441-8.2q1.875.469,5.41,1.445.781.215.781.605t-.625.586q-.156.039-1.484.273Q152.578-27.578,150.723-25.742Zm.957,6.465h6.895q.82-.957,1.719-1.953,1.426.957,2.813,2.012.391.313.391.566,0,.352-1.055,1.094l.02,2.715q0,5.566.078,8.145a.818.818,0,0,1-.469.723,8.016,8.016,0,0,1-1.289.2q-1.27.078-1.348.078a.527.527,0,0,1-.469-.176.788.788,0,0,1-.059-.391V-8.3h-7.832v2.344a.911.911,0,0,1-.107.439.717.717,0,0,1-.322.225,6.853,6.853,0,0,1-2.227.234q-.723,0-.9-.273a1.132,1.132,0,0,1-.078-.508q.137-3.418.137-6.113v-3.32q.02-1.289.02-1.445,0-1.66-.176-4.57Q149.59-20.332,151.68-19.277Zm-.605.879V-9.18h7.832V-18.4Zm41.3,1.855.488.137Q190.68-6.719,190.68-5q0,.176.117,1.563a6.918,6.918,0,0,1,.039.762,3.168,3.168,0,0,1-.234,1.289,1.417,1.417,0,0,1-1.387.918q-1.23,0-2.129-1.6a15.077,15.077,0,0,1-1.562-4.512,30.076,30.076,0,0,1-.547-5.9,54.891,54.891,0,0,1,.9-9.062,43.83,43.83,0,0,0,.7-5.508,6.836,6.836,0,0,0-1.543-4.023,5.783,5.783,0,0,1,3.3,1.758q2.227,2.129,2.227,3.945a3.655,3.655,0,0,1-.215,1.23q-.156.469-.469,1.172a27.534,27.534,0,0,0-2.266,10.82,18.5,18.5,0,0,0,.273,3.4,7.294,7.294,0,0,0,.625,1.836q.391-.918,1.8-4.473l1.7-4.238Zm2.52-5.918.371-.391a9.516,9.516,0,0,0,1.758,1.074,7.157,7.157,0,0,0,2.754.508,21.9,21.9,0,0,0,5.918-.859,28.473,28.473,0,0,0-.527-6.523,2.974,2.974,0,0,0-1.523-1.68,12.316,12.316,0,0,0-2.227-.742,2.836,2.836,0,0,1,1.25-.625,9.073,9.073,0,0,1,1.484-.1,11.5,11.5,0,0,1,3.77.605q1.816.605,1.816,1.855a5.819,5.819,0,0,1-.41,1.6,20.637,20.637,0,0,0-.43,4.648,10.6,10.6,0,0,0,3.5-1.816,1.277,1.277,0,0,1,.84-.273,3.811,3.811,0,0,1,2.129.625,1.2,1.2,0,0,1,.684,1.23q-.078.586-1.055,1.133a24.331,24.331,0,0,1-6.035,1.992v1.8q.02,2.7.02,5.41a17.209,17.209,0,0,1-1.836,8.516,15.234,15.234,0,0,1-5.82,5.664,34.429,34.429,0,0,1-3.184,1.582l-.293-.449A34.33,34.33,0,0,0,200.6-.02a16.349,16.349,0,0,0,3.906-6.426,28.875,28.875,0,0,0,1.23-8.887q.02-1.6.02-4.238a25.027,25.027,0,0,1-3.945.43,8.648,8.648,0,0,1-4.258-.977A9.055,9.055,0,0,1,194.9-22.461Zm29.3-1.211.41-.273a8.825,8.825,0,0,0,1.8,1.563,5.308,5.308,0,0,0,2.871.723,20.522,20.522,0,0,0,4.844-.645,26.5,26.5,0,0,0,1.23-6.6,2.241,2.241,0,0,0-.82-1.777,6.439,6.439,0,0,0-2.227-1,5.551,5.551,0,0,1,.605-.312,3.719,3.719,0,0,1,1.133-.137,10.485,10.485,0,0,1,4.453,1.035q1.563.723,1.563,1.758a1.21,1.21,0,0,1-.1.469,4.1,4.1,0,0,1-.488.762,23.077,23.077,0,0,0-2.227,4.922,14.1,14.1,0,0,0,4.59-2.5,2.152,2.152,0,0,1,1.27-.625,5.175,5.175,0,0,1,2.031.449q.977.41.977,1.094a1.406,1.406,0,0,1-.527,1.074,15.986,15.986,0,0,1-4.609,2.129q-2.07.742-4.824,1.465-.488,1.426-2.5,7.48-3.066,9.141-3.516,10.234a9.3,9.3,0,0,1-1.074,2.129,1.313,1.313,0,0,1-1.055.527,1.218,1.218,0,0,1-1.074-.547,5.275,5.275,0,0,1-.762-1.914A6.512,6.512,0,0,1,226-3.652a2.737,2.737,0,0,1,.234-1.191,6.133,6.133,0,0,1,.723-1.035q2.832-3.5,6.367-13.828a18.388,18.388,0,0,1-3.066.254,5.989,5.989,0,0,1-3.887-1.23A8.654,8.654,0,0,1,224.2-23.672Zm17.871,7.441-.2-.449a14.226,14.226,0,0,1,8.945-3.262,6.993,6.993,0,0,1,3.145.566,2.044,2.044,0,0,1,1.289,1.816,1.225,1.225,0,0,1-.664,1.23,2.614,2.614,0,0,1-1.055.2q-.1.02-1.289.02a7.6,7.6,0,0,0-3.437.977q-1.465.762-2.812,1.621l-.234-.332q.527-.508,1.934-1.816.977-.918,2.051-1.953-.566-.02-.84-.02A18.981,18.981,0,0,0,242.074-16.23ZM240.551-9.9l.527.137Q241-8.809,241-8.379a4.438,4.438,0,0,0,2.813,4.512,11.317,11.317,0,0,0,4.355.7,14.822,14.822,0,0,0,2.656-.234,9.456,9.456,0,0,0,1.426-.41,1.88,1.88,0,0,1,.684-.137,3.426,3.426,0,0,1,1.6.508q1.8,1,1.8,2.129A1.446,1.446,0,0,1,255.316.039a13.068,13.068,0,0,1-4.551.527,17.591,17.591,0,0,1-7.012-1.191,5.888,5.888,0,0,1-3.242-3.32,7.41,7.41,0,0,1-.527-2.832A9.576,9.576,0,0,1,240.551-9.9ZM-251.962,50.332h2.988q1.387-1.719,2.91-3.4,2.012,1.621,3.926,3.4a.872.872,0,0,1,.234.508q0,.352-.449.352h-9.609v1.035q0,12.578.254,19.492a.853.853,0,0,1-.312.781,6.6,6.6,0,0,1-2.852.371,2.452,2.452,0,0,1-.84-.117q-.293-.1-.332-.625.254-7.656.254-17.344,0-1-.02-2.48V51.191h-4.57a24.252,24.252,0,0,0-2.832.2L-263.466,50a13.411,13.411,0,0,0,3.086.332h4.57l-.02-3.105q-.02-4.141-.059-7.168a24.4,24.4,0,0,0-.273-3.242q3.5.254,5.1.488.859.117.859.566,0,.332-.586.625l-1.152.449q-.02,4-.02,8.105Zm-25.664-10.469-.234-1.309a16.611,16.611,0,0,0,2.793.293h5.43q1.27-1.465,2.559-2.812,1.973,1.445,3.867,2.969a.716.716,0,0,1,.234.449q0,.273-.43.273h-11.66Q-276.024,39.727-277.626,39.863Zm-1.641,5.371-.254-1.406a17.053,17.053,0,0,0,3.223.332h8.2q1.27-1.445,2.559-2.852,1.973,1.563,3.887,3.164a.61.61,0,0,1,.137.313.271.271,0,0,1-.137.215.347.347,0,0,1-.156.039h-14.727A19.741,19.741,0,0,0-279.266,45.234Zm1.523,5.117-.234-1.328a12.685,12.685,0,0,0,2.91.313h5.254q1.152-1.289,2.344-2.578,1.836,1.367,3.555,2.871a.578.578,0,0,1,.156.332q0,.254-.371.254h-11Q-276.278,50.215-277.743,50.352Zm.078,5.371-.215-1.328a13.286,13.286,0,0,0,2.813.273h5.293q1.172-1.387,2.324-2.715,1.836,1.426,3.555,2.93a.661.661,0,0,1,.215.41q0,.254-.371.254h-11.016A20.4,20.4,0,0,0-277.665,55.723Zm0,2.031q2.148,1.074,4.238,2.363h4.473q1-1.113,2.031-2.246,1.582,1.152,3.008,2.246a1.339,1.339,0,0,1,.234.566q0,.449-1.289,1.328,0,6.211.156,9.395a.773.773,0,0,1-.371.684,6.106,6.106,0,0,1-2.559.332,1.435,1.435,0,0,1-.605-.117q-.215-.1-.273-.527v-1.6h-5.215v1.7a.774.774,0,0,1-.352.723,7.144,7.144,0,0,1-2.5.254,1.323,1.323,0,0,1-.723-.156.772.772,0,0,1-.254-.547q.176-3.34.176-10.586Q-277.489,59.551-277.665,57.754ZM-273.837,61v8.3h5.215V61Zm50.152-.352h-2.207v.723a.561.561,0,0,1-.254.469,6.4,6.4,0,0,1-2.422.293,2.591,2.591,0,0,1-.82-.1q-.293-.078-.332-.605.234-4.648.234-8.594,0-5.781-.137-8.027a43.426,43.426,0,0,1,4.3,2.051h16.6q.957-.937,1.895-1.816,1.445.977,2.891,1.992.469.391.469.605,0,.371-1.25,1.113.039,7.6.176,12.188a.755.755,0,0,1-.547.8,9.715,9.715,0,0,1-2.6.293.721.721,0,0,1-.547-.156.974.974,0,0,1-.117-.312v-.918h-1.582v3.887h4.492q1.484-1.66,2.91-3.2,1.992,1.7,3.926,3.477a.658.658,0,0,1,.156.332q0,.273-.371.273h-11.113v.527q0,1.855.137,6.055,0,.391-.2.508a6.065,6.065,0,0,1-2.676.371,2.742,2.742,0,0,1-.664-.059q-.273-.059-.352-.508l.039-1.914q.02-3.4.02-4.453V65.41h-7.031q-2.109,6.406-14,8.105l-.2-.469a25.309,25.309,0,0,0,7.832-4.16,9.975,9.975,0,0,0,2.227-2.7q.2-.371.371-.781h-7.227a16.269,16.269,0,0,0-3.047.273l-.254-1.484a17.793,17.793,0,0,0,3.379.332h7.441A14.7,14.7,0,0,0-223.684,60.645Zm3.711,0a21.442,21.442,0,0,1-.43,3.887h6.777V60.645Zm-5.918-9.668h17.539V47.734h-17.539Zm17.539.879h-17.539v3.418h17.539Zm0,4.3h-17.539v3.613h17.539Zm-19.316-15.41h5q1.211-1.387,2.383-2.7,1.8,1.465,3.535,3.008a.551.551,0,0,1,.176.332q0,.234-.352.234h-8.887a25.828,25.828,0,0,1,2.656,1.094q1.348.684,1.348,1.68a2.544,2.544,0,0,1-.527,1.523,1.471,1.471,0,0,1-1.211.7q-.625,0-1.016-1.074-.527-1.465-.82-2.109a10.3,10.3,0,0,0-1.191-1.816h-1.719a30.112,30.112,0,0,1-7.129,6.719l-.391-.332a43.106,43.106,0,0,0,4.336-6.914,24.252,24.252,0,0,0,1.387-3.379,13.211,13.211,0,0,0,.313-1.426q3.477.7,4.727,1.016.7.176.7.527,0,.312-.566.508a11.926,11.926,0,0,1-1.445.293Q-227.044,39.8-227.669,40.742Zm14.844,0h7.109q1.27-1.5,2.539-2.949,2.109,1.621,4.1,3.3a.534.534,0,0,1,.2.332q0,.2-.273.2h-11.934a18.923,18.923,0,0,1,2.5.9q1.172.547,1.172,1.406a2.356,2.356,0,0,1-.566,1.5,1.634,1.634,0,0,1-1.328.7.932.932,0,0,1-.8-.371,2.763,2.763,0,0,1-.312-.879,10.36,10.36,0,0,0-.586-1.8,9.176,9.176,0,0,0-.859-1.465h-1.66a31.135,31.135,0,0,1-5.039,4.785l-.43-.234a39.634,39.634,0,0,0,3.184-6A19.637,19.637,0,0,0-214.6,36.27q2.422.508,4.414,1,.8.2.8.566,0,.273-.488.449a9.771,9.771,0,0,1-1.5.293Q-212.18,39.863-212.825,40.742Zm54.352,9.3a17.057,17.057,0,0,0-1.152-2.559l.371-.273a19.672,19.672,0,0,1,3.066,2.383,3.041,3.041,0,0,1,1,1.934,2.628,2.628,0,0,1-.957,2.012,1.377,1.377,0,0,1-.859.449q-.43,0-.625-.547-.059-.156-.273-1.152-.1-.391-.293-1.25-2.09.625-6.777,1.719-.234,1.426-.664,1.426-.234,0-.371-.371-.1-.273-.371-1.5l-.293-1.23-.156-.7q.645.039,1.074.039.332,0,.879-.02l.156-.2q.9-1.172,1.563-2.109.723-1.074,2.891-4.727a14.221,14.221,0,0,0,.879-1.8l2.031.918a19.806,19.806,0,0,1,1.836.9q.371.254.371.469,0,.371-.664.43-.469.039-1.133.039a59.919,59.919,0,0,1-6.406,6.016Q-160.7,50.234-158.473,50.039Zm-7.7,7.051h6.563l1.191-1.387.957-1.094q1.621,1.367,3.164,2.754a.534.534,0,0,1,.2.332q0,.273-.488.273h-11.367A18.192,18.192,0,0,0-163.9,62.6a17.176,17.176,0,0,0,2.5-3.848q1.582.664,3.867,1.68.7.293.7.605,0,.449-.879.449h-1.23a43.777,43.777,0,0,1-3.145,3.555,15.6,15.6,0,0,0,1.66,1.68,19.624,19.624,0,0,0,2.363,1.621q1.055-1.621,1.836-3.086.449-.84,1.582-3.027l.449.137-1.191,5.391a5.846,5.846,0,0,0-.176,1.27.972.972,0,0,0,.176.566q.059.1.43.547a1.89,1.89,0,0,1,.449,1.191,1.81,1.81,0,0,1-.254.938,1.586,1.586,0,0,1-1.465.781q-1.895,0-4.707-2.148a23.231,23.231,0,0,1-3.711-3.633,29.1,29.1,0,0,1-5,3.047,40.529,40.529,0,0,1-7.324,2.441l-.2-.527A33.158,33.158,0,0,0-166.208,65.1a20.441,20.441,0,0,1-2.012-3.984,28.281,28.281,0,0,1-.918-3.145h-5.723q-.078,1.582-.156,2.578a26.528,26.528,0,0,1,3.223,1.7,3.97,3.97,0,0,1,1.523,1.426,2.335,2.335,0,0,1,.254,1.094,3.108,3.108,0,0,1-.469,1.66,1.587,1.587,0,0,1-1.309.918.742.742,0,0,1-.645-.469,8.73,8.73,0,0,1-.312-1,12.163,12.163,0,0,0-2.324-4.824,16.373,16.373,0,0,1-7.441,11.992l-.352-.371a19.922,19.922,0,0,0,4.043-8.613,30.588,30.588,0,0,0,.527-6.094h-.918a8.76,8.76,0,0,0-2.441.293l-.332-1.523a10.507,10.507,0,0,0,2.773.352h9.883q-.488-2.3-.84-5.254-.312-2.793-.371-7.363-.391.02-.566.02h-.41a56.081,56.081,0,0,1-4.395,5.313q-.742.781-1.68,1.641,1.465-.078,4.453-.371A19.707,19.707,0,0,0-174,48.262l.332-.254a12.942,12.942,0,0,1,2.266,2.383,3.372,3.372,0,0,1,.7,2.07,2.474,2.474,0,0,1-.41,1.387q-.566.84-1.152.84-.352,0-.469-.449-.02-.137-.137-1.152-.059-.547-.117-1.055-1.8.762-5.547,1.992a6.583,6.583,0,0,1-.176.84q-.156.352-.371.352-.312,0-.488-.586-.469-1.738-.82-3.125h.645q.234,0,.7-.02a40.78,40.78,0,0,0,2.52-3.867,35.579,35.579,0,0,0,2.773-5.82q1.484.742,3.184,1.68l-.02-1.406q-.059-3.262-.215-5.527,1.914.137,4.512.488.762.1.762.508,0,.254-.43.469a9.3,9.3,0,0,1-1.25.391l-.02.742q-.039,4-.039,5.117A58.945,58.945,0,0,0-166.169,57.09Zm-11.6-14.316a9.482,9.482,0,0,1,.957.664,1.74,1.74,0,0,1,.684,1.426,3.777,3.777,0,0,1-.469,1.8q-.449.8-1.035.8-.352,0-.547-.449-.039-.1-.371-1.113a13.379,13.379,0,0,0-1.113-2.6q-.41-.664-1.23-1.816l.293-.293q1.133.566,1.973,1.055.371-.82.723-1.8a24.067,24.067,0,0,0,1-3.613q1.621.605,3.867,1.5.625.254.625.566,0,.293-.469.41-.1.02-1.27.117Q-176.6,41.758-177.77,42.773Zm-6.191,2.5h.488l.859-1.094.8-1q1.25,1.211,2.441,2.48a.473.473,0,0,1,.117.254q0,.234-.41.234h-4.3v2.813q.352.254.84.586,2.891,1.973,2.891,3.633a3.106,3.106,0,0,1-.684,1.914,1.169,1.169,0,0,1-.9.586q-.312,0-.469-.41a8.7,8.7,0,0,1-.176-1.035,19.438,19.438,0,0,0-.566-2.617,11.923,11.923,0,0,0-.937-2.012v1.836l.02,10.645q.02,7.07.039,10.234a.788.788,0,0,1-.547.742,8.753,8.753,0,0,1-2.187.2,1.182,1.182,0,0,1-.566-.117.681.681,0,0,1-.293-.566q.117-2.91.254-8.73l.117-4.727.1-4.668q-1.152,3.008-2.246,5.176a25.246,25.246,0,0,1-1.914,3.164q-.254.391-1.211,1.582l-.449-.312A60.281,60.281,0,0,0-189.2,53.535a70.278,70.278,0,0,0,1.465-7.383h-2.07a7.8,7.8,0,0,0-2.109.273l-.273-1.5a8.061,8.061,0,0,0,2.383.352h2.422V41.055q0-2.168-.2-4.531,2.6.2,4.473.41.762.078.762.508,0,.273-.449.488-.1.059-1.172.43Zm20.391-2.6a6.643,6.643,0,0,1,.547.469,2.068,2.068,0,0,1,.684,1.563,2.633,2.633,0,0,1-.469,1.484,1.336,1.336,0,0,1-1.055.723q-.391,0-.625-.508-.059-.156-.273-1.055a10.5,10.5,0,0,0-1.875-4.043l.273-.352q1.133.645,1.934,1.152a18.8,18.8,0,0,0,1.016-1.973,30.042,30.042,0,0,0,1.25-3.3q1.211.527,2.148.918a18.2,18.2,0,0,1,2.051.957q.312.215.313.43,0,.43-1.172.43h-.82q-.449.352-2.949,2.383Q-162.77,42.09-163.571,42.676Zm-.762,10.449.313-.332a16.56,16.56,0,0,1,2.344.742q1.445.586,1.445,1.5a2.3,2.3,0,0,1-.234.9q-.43.9-1.055.9a.866.866,0,0,1-.684-.43,7.142,7.142,0,0,1-.527-.977A9.04,9.04,0,0,0-164.333,53.125Zm27.3-12.168v7.051h1.152q1.094-1.328,2.188-2.52,1.6,1.25,3.066,2.617a.787.787,0,0,1,.234.469q0,.312-.488.313h-6.152v2.6a19.828,19.828,0,0,1,3.73,2.051,5.313,5.313,0,0,1,1.6,1.523,2.468,2.468,0,0,1,.313,1.211,3.7,3.7,0,0,1-.723,2.188,1.581,1.581,0,0,1-1.27.8.752.752,0,0,1-.7-.449,4.8,4.8,0,0,1-.312-1.035q-1.152-4.062-2.637-5.41v8.809q0,2.52.059,8.223l.039,2.734a.718.718,0,0,1-.254.605,5.644,5.644,0,0,1-2.676.391,1.918,1.918,0,0,1-.645-.1.574.574,0,0,1-.312-.527q.215-5.078.332-11.211l.2-6.035a32.867,32.867,0,0,1-6.914,9.258l-.312-.273q1.758-2.969,2.578-4.609a53.061,53.061,0,0,0,3.965-10.742h-3.437a10.636,10.636,0,0,0-2.4.234l-.273-1.5a9.54,9.54,0,0,0,2.91.391h3.555v-6.23a41.448,41.448,0,0,1-5.742.645l-.117-.469a42.749,42.749,0,0,0,7.207-2.988q1.973-1.035,2.852-1.582.449-.312,1.289-.977,1.523,1.016,3.535,2.559.586.449.586.742,0,.391-.527.391a7.858,7.858,0,0,1-1.641-.312Q-135.372,40.527-137.032,40.957Zm21.055,18.262.7-.137q1-1.816,1.973-3.379,1.816,1.172,3.4,2.4a.731.731,0,0,1,.313.488q0,.176-.293.234l-6.094,1.25v2.09q.02,3.672.2,9.844a.785.785,0,0,1-.41.742,6.413,6.413,0,0,1-2.617.352,2.161,2.161,0,0,1-.82-.137q-.254-.117-.273-.566.059-1.895.117-11.113v-.43l-11.719,2.4a10.18,10.18,0,0,0-2.148.723l-.586-1.445h.469a11.469,11.469,0,0,0,2.266-.2l11.719-2.363.02-4.59.02-4.59q-.02-9.219-.039-10.547-.02-1.309-.1-3.2,3.027.254,4.727.508.8.1.8.527,0,.273-.488.527A7.183,7.183,0,0,1-116,39V51.719l.02,3.75Zm-13.926-18.3.215-.371a26.455,26.455,0,0,1,4.082,1.426,9.611,9.611,0,0,1,2.637,1.68,2.351,2.351,0,0,1,.664,1.738,3.962,3.962,0,0,1-.547,2.031,1.544,1.544,0,0,1-1.289.918.959.959,0,0,1-.82-.547q-.078-.117-.488-1A17.186,17.186,0,0,0-129.9,40.918Zm-1.406,9.824.156-.371q2.07.527,2.969.859a12.026,12.026,0,0,1,3.887,2.031,2.513,2.513,0,0,1,.84,1.914,4.041,4.041,0,0,1-.586,2.188,1.34,1.34,0,0,1-1.133.762.98.98,0,0,1-.781-.488q-.078-.117-.566-1.035A19.694,19.694,0,0,0-131.309,50.742ZM-83.247,59.1h9.141q1.426-1.7,2.949-3.4,2.207,1.719,4.238,3.574a.656.656,0,0,1,.215.371q0,.332-.547.332h-16v4.551q0,.82.039,5.215a4.265,4.265,0,0,1-.273,1.582q-1.172,1.953-5.625,2.148a6,6,0,0,0-.391-1.641,3.954,3.954,0,0,0-2.324-1.562,32.44,32.44,0,0,0-3.848-.937v-.527q1.758.1,5.586.293l2.148.117a1.614,1.614,0,0,0,.215.02q.488,0,.488-.605V59.98h-13.105q-1.7.039-3.047.2l-.215-1.406a15.729,15.729,0,0,0,3.184.332h13.184v-.508q-.02-2.266-.137-3.887,1.934.254,3.789.566a29.587,29.587,0,0,0,3.867-4.531H-93.52q-1.992.078-2.773.2l-.234-1.328a20.227,20.227,0,0,0,2.93.254h14.1q.977-1.035,1.973-1.992,1.641,1.094,2.871,2.051a23.017,23.017,0,0,0,1.719-4.043H-98.11A12.342,12.342,0,0,1-98.4,49a5.655,5.655,0,0,1-1.934,3.262,2.184,2.184,0,0,1-1.289.469,1.377,1.377,0,0,1-1.25-.879A3.888,3.888,0,0,1-103.345,50a1.5,1.5,0,0,1,.449-1.133,8.887,8.887,0,0,1,1-.7,5.826,5.826,0,0,0,1.8-1.895,6.617,6.617,0,0,0,.752-1.66,13.25,13.25,0,0,0,.361-2.168h.645q.156,1.992.2,2.559H-80.61a28.622,28.622,0,0,0,1.719-3.086q.781-1.582,1.5-3.262.254-.605.684-1.855,1.816.586,3.73,1.289,1.172.449,1.387.566.371.215.371.469,0,.625-1.367.625-.2,0-.625-.02A71.617,71.617,0,0,1-79.282,45h5.938q1.152-1.211,2.3-2.285,1.973,1.406,3.809,2.832.586.449.586.762,0,.469-.84.645a10.5,10.5,0,0,1-1.66.1q-1.348,1-3.437,2.266-.586.352-1.582.977.9.684.9,1.055,0,.391-.664.527a9.837,9.837,0,0,1-1.387.078,58.836,58.836,0,0,1-6.914,3.594q.469.156.469.449,0,.332-.527.566a6.366,6.366,0,0,1-.957.293ZM-97.192,37.559l.293-.332a26.369,26.369,0,0,1,4.609,2.559,2.74,2.74,0,0,1,1.309,2.031,3.754,3.754,0,0,1-.664,1.914q-.664,1.113-1.484,1.113a.9.9,0,0,1-.8-.488,5.267,5.267,0,0,1-.43-1.016A27.847,27.847,0,0,0-95.669,39.9,22.978,22.978,0,0,0-97.192,37.559Zm8.164-.7.352-.371a24.424,24.424,0,0,1,3.73,2.012Q-82.7,40-82.7,41.27a4.084,4.084,0,0,1-.7,1.992,1.988,1.988,0,0,1-1.719,1.172.892.892,0,0,1-.84-.625,10.822,10.822,0,0,1-.391-1.27,20.776,20.776,0,0,0-1.211-3.4A15.757,15.757,0,0,0-89.028,36.855Zm37.887,13.906a3.857,3.857,0,0,1,2.949,1.348,3.86,3.86,0,0,1,1.035,2.7A3.88,3.88,0,0,1-48.5,57.813a3.906,3.906,0,0,1-2.7,1.035,3.905,3.905,0,0,1-3.008-1.328,3.981,3.981,0,0,1-1.035-2.754A3.877,3.877,0,0,1-53.9,51.8,3.935,3.935,0,0,1-51.141,50.762Zm35.7-8.652v26.25h9.16q1.484-1.895,3.125-3.73,2.363,1.953,4.668,3.945a.656.656,0,0,1,.215.371q0,.293-.508.293l-32.187.02q-3.047.078-4.16.215l-.234-1.523a22.161,22.161,0,0,0,4.395.41h11.523V42.09h-9.8a27,27,0,0,0-3.379.234l-.293-1.465a18.843,18.843,0,0,0,3.672.371H-8.313q1.5-1.738,3.008-3.379,2.246,1.8,4.473,3.77a.443.443,0,0,1,.137.254q0,.234-.391.234ZM28.753,59.1h9.141q1.426-1.7,2.949-3.4,2.207,1.719,4.238,3.574a.656.656,0,0,1,.215.371q0,.332-.547.332h-16v4.551q0,.82.039,5.215a4.265,4.265,0,0,1-.273,1.582q-1.172,1.953-5.625,2.148a6,6,0,0,0-.391-1.641,3.954,3.954,0,0,0-2.324-1.562,32.44,32.44,0,0,0-3.848-.937v-.527q1.758.1,5.586.293l2.148.117a1.614,1.614,0,0,0,.215.02q.488,0,.488-.605V59.98H11.663q-1.7.039-3.047.2L8.4,58.77a15.729,15.729,0,0,0,3.184.332H24.769v-.508q-.02-2.266-.137-3.887,1.934.254,3.789.566a29.587,29.587,0,0,0,3.867-4.531H18.48q-1.992.078-2.773.2l-.234-1.328a20.227,20.227,0,0,0,2.93.254H32.5q.977-1.035,1.973-1.992,1.641,1.094,2.871,2.051a23.016,23.016,0,0,0,1.719-4.043H13.89A12.342,12.342,0,0,1,13.6,49a5.655,5.655,0,0,1-1.934,3.262,2.184,2.184,0,0,1-1.289.469,1.377,1.377,0,0,1-1.25-.879A3.888,3.888,0,0,1,8.655,50,1.5,1.5,0,0,1,9.1,48.867a8.888,8.888,0,0,1,1-.7,5.826,5.826,0,0,0,1.8-1.895,6.617,6.617,0,0,0,.752-1.66,13.25,13.25,0,0,0,.361-2.168h.645q.156,1.992.2,2.559H31.39a28.621,28.621,0,0,0,1.719-3.086q.781-1.582,1.5-3.262.254-.605.684-1.855,1.816.586,3.73,1.289,1.172.449,1.387.566.371.215.371.469,0,.625-1.367.625-.2,0-.625-.02A71.617,71.617,0,0,1,32.718,45h5.938q1.152-1.211,2.3-2.285,1.973,1.406,3.809,2.832.586.449.586.762,0,.469-.84.645a10.5,10.5,0,0,1-1.66.1q-1.348,1-3.437,2.266-.586.352-1.582.977.9.684.9,1.055,0,.391-.664.527a9.837,9.837,0,0,1-1.387.078,58.836,58.836,0,0,1-6.914,3.594q.469.156.469.449,0,.332-.527.566a6.366,6.366,0,0,1-.957.293ZM14.808,37.559l.293-.332a26.369,26.369,0,0,1,4.609,2.559,2.74,2.74,0,0,1,1.309,2.031,3.754,3.754,0,0,1-.664,1.914q-.664,1.113-1.484,1.113a.9.9,0,0,1-.8-.488,5.267,5.267,0,0,1-.43-1.016A27.847,27.847,0,0,0,16.331,39.9,22.977,22.977,0,0,0,14.808,37.559Zm8.164-.7.352-.371a24.424,24.424,0,0,1,3.73,2.012Q29.3,40,29.3,41.27a4.084,4.084,0,0,1-.7,1.992,1.988,1.988,0,0,1-1.719,1.172.892.892,0,0,1-.84-.625,10.822,10.822,0,0,1-.391-1.27,20.776,20.776,0,0,0-1.211-3.4A15.757,15.757,0,0,0,22.972,36.855ZM60.859,50.762A4.039,4.039,0,0,1,63.5,57.813a4.05,4.05,0,0,1-5.7-.293,3.981,3.981,0,0,1-1.035-2.754A3.877,3.877,0,0,1,58.1,51.8,3.935,3.935,0,0,1,60.859,50.762Zm32.965,8.125q-.43,1.367-.684,2.031a19.513,19.513,0,0,1-2.227,4.238,7.5,7.5,0,0,1,1.621.879,2.341,2.341,0,0,1,.9,1.953,2.553,2.553,0,0,1-.605,1.758.727.727,0,0,1-.527.273q-.43,0-1.191-1a12.445,12.445,0,0,0-1.914-1.758,16.949,16.949,0,0,1-3.887,2.969,22.892,22.892,0,0,1-5.469,2.129q-1.016.234-3.008.605l-.2-.43a36.688,36.688,0,0,0,4.277-1.953,20.513,20.513,0,0,0,5.977-4.922,27.88,27.88,0,0,0-3.75-1.973,8.155,8.155,0,0,1-1.152,1.934,2.192,2.192,0,0,1-1.387.293q-1.973,0-1.973-.605a1.175,1.175,0,0,1,.02-.176,8.474,8.474,0,0,1,.625-1.074q1.27-2.187,2.813-5.156H79.956q-1.8,0-3.2.137L76.5,57.656a16.093,16.093,0,0,0,3.457.371h2.52a22.9,22.9,0,0,0,1.055-2.441,12.014,12.014,0,0,0,.41-1.309q3.145.566,4,.8.586.137.586.469,0,.547-1.562.762-.488.957-.9,1.719h5.371q.957-1.23,2.031-2.461,1.719,1.406,3.4,2.813a.443.443,0,0,1,.137.254q0,.254-.332.254Zm-3.594.02H85.62q-.352.625-1.172,2.285-.547,1.133-.957,1.855a42.014,42.014,0,0,1,4.492,1.133,16.272,16.272,0,0,0,1.7-3.516Q89.722,60.586,90.23,58.906Zm7.891-7.461A45.609,45.609,0,0,1,94.8,55.9l-.43-.332a61.453,61.453,0,0,0,2.539-6.035,53.3,53.3,0,0,0,2.93-12.949q4.141.8,4.766.977.9.254.9.645,0,.332-.41.469a10.475,10.475,0,0,1-1.367.293,61.844,61.844,0,0,1-2.852,7.266h6.445q1.289-1.445,2.578-2.949l1.895,1.582,1.992,1.68a.449.449,0,0,1,.137.273q0,.293-.215.293h-3.789a35.846,35.846,0,0,1-5.137,15.566,20.2,20.2,0,0,0,3.848,3.086,36.214,36.214,0,0,0,5.742,2.754l-.1.352a2.118,2.118,0,0,0-.371-.039,1.927,1.927,0,0,0-1.074.547,5.418,5.418,0,0,0-1.387,1.738,8.753,8.753,0,0,0-.488,1.387,24.829,24.829,0,0,1-7.91-7.461,22.206,22.206,0,0,1-4.8,4.277,27.98,27.98,0,0,1-5.176,2.676q-.684.273-2.949,1.035l-.215-.449a47.6,47.6,0,0,0,4.9-3.086,26.3,26.3,0,0,0,6.543-7.246A33.758,33.758,0,0,1,98.12,51.445Zm.586-.957A33.779,33.779,0,0,0,100.425,56a24.95,24.95,0,0,0,2.148,3.945,22.6,22.6,0,0,0,1.8-4.57,42.038,42.038,0,0,0,1.6-8.262h-5.488Q99.644,48.887,98.706,50.488ZM88.765,47.3q1.7.449,3.125.918A5.311,5.311,0,0,1,94.624,49.8a2.515,2.515,0,0,1,.43,1.426,2.362,2.362,0,0,1-.664,1.777,1.054,1.054,0,0,1-.723.332.894.894,0,0,1-.684-.371,9.892,9.892,0,0,1-.645-1.035,13.588,13.588,0,0,0-2.363-3.047,8.064,8.064,0,0,0-1.211-.859q.059,1.055.117,5.078a.706.706,0,0,1-.469.605,6.055,6.055,0,0,1-1.855.176,1.654,1.654,0,0,1-.879-.156.632.632,0,0,1-.2-.449q.039-.859.059-2.715l.059-1.758v-.273a32.725,32.725,0,0,1-4.16,3.926,25.1,25.1,0,0,1-3.105,2.168q-.645.371-1.855.918l-.215-.332a30.647,30.647,0,0,0,3.4-3.262,32.045,32.045,0,0,0,4.277-6.211H79.859a23.959,23.959,0,0,0-3.008.215l-.234-1.348a20.317,20.317,0,0,0,3.262.254H85.6V40.625a37.673,37.673,0,0,0-.234-3.984q2.4.176,4.2.469.723.117.723.508,0,.293-.449.508a9.381,9.381,0,0,1-1.035.391q-.02,3.906-.059,6.348h3.887q.781-1.094,1.66-2.187,1.582,1.25,2.969,2.559.176.156.176.254,0,.254-.234.254H88.765ZM78.472,37.832l.254-.273A16.794,16.794,0,0,1,82.534,39.9a3.161,3.161,0,0,1,1.25,2.031,2.381,2.381,0,0,1-.352,1.152,2.88,2.88,0,0,1-1.074,1.152.992.992,0,0,1-.527.156.753.753,0,0,1-.449-.156,2,2,0,0,1-.41-.957,18.419,18.419,0,0,0-.723-2.187,13.615,13.615,0,0,0-1.094-2.227Q78.96,38.535,78.472,37.832ZM90.034,44.2a32,32,0,0,0,1.836-4.414,17.07,17.07,0,0,0,.625-2.461,36.948,36.948,0,0,1,3.848,1.484q.566.273.566.566t-.488.41q-.137.039-1.094.156-3.789,3.438-4.98,4.453Zm50.719,14.9h9.141q1.426-1.7,2.949-3.4,2.207,1.719,4.238,3.574a.656.656,0,0,1,.215.371q0,.332-.547.332h-16v4.551q0,.82.039,5.215a4.265,4.265,0,0,1-.273,1.582q-1.172,1.953-5.625,2.148a6,6,0,0,0-.391-1.641,3.954,3.954,0,0,0-2.324-1.562,32.439,32.439,0,0,0-3.848-.937v-.527q1.758.1,5.586.293l2.148.117a1.614,1.614,0,0,0,.215.02q.488,0,.488-.605V59.98H123.663q-1.7.039-3.047.2L120.4,58.77a15.729,15.729,0,0,0,3.184.332h13.184v-.508q-.02-2.266-.137-3.887,1.934.254,3.789.566a29.587,29.587,0,0,0,3.867-4.531H130.48q-1.992.078-2.773.2l-.234-1.328a20.227,20.227,0,0,0,2.93.254h14.1q.977-1.035,1.973-1.992,1.641,1.094,2.871,2.051a23.016,23.016,0,0,0,1.719-4.043H125.89A12.342,12.342,0,0,1,125.6,49a5.655,5.655,0,0,1-1.934,3.262,2.184,2.184,0,0,1-1.289.469,1.377,1.377,0,0,1-1.25-.879A3.888,3.888,0,0,1,120.655,50a1.5,1.5,0,0,1,.449-1.133,8.887,8.887,0,0,1,1-.7,5.826,5.826,0,0,0,1.8-1.895,6.617,6.617,0,0,0,.752-1.66,13.25,13.25,0,0,0,.361-2.168h.645q.156,1.992.2,2.559H143.39a28.621,28.621,0,0,0,1.719-3.086q.781-1.582,1.5-3.262.254-.605.684-1.855,1.816.586,3.73,1.289,1.172.449,1.387.566.371.215.371.469,0,.625-1.367.625-.2,0-.625-.02A71.618,71.618,0,0,1,144.718,45h5.938q1.152-1.211,2.3-2.285,1.973,1.406,3.809,2.832.586.449.586.762,0,.469-.84.645a10.5,10.5,0,0,1-1.66.1q-1.348,1-3.437,2.266-.586.352-1.582.977.9.684.9,1.055,0,.391-.664.527a9.837,9.837,0,0,1-1.387.078,58.837,58.837,0,0,1-6.914,3.594q.469.156.469.449,0,.332-.527.566a6.365,6.365,0,0,1-.957.293ZM126.808,37.559l.293-.332a26.369,26.369,0,0,1,4.609,2.559,2.74,2.74,0,0,1,1.309,2.031,3.754,3.754,0,0,1-.664,1.914q-.664,1.113-1.484,1.113a.9.9,0,0,1-.8-.488,5.267,5.267,0,0,1-.43-1.016,27.846,27.846,0,0,0-1.309-3.437A22.978,22.978,0,0,0,126.808,37.559Zm8.164-.7.352-.371a24.424,24.424,0,0,1,3.73,2.012Q141.3,40,141.3,41.27a4.084,4.084,0,0,1-.7,1.992,1.988,1.988,0,0,1-1.719,1.172.892.892,0,0,1-.84-.625,10.823,10.823,0,0,1-.391-1.27,20.776,20.776,0,0,0-1.211-3.4A15.756,15.756,0,0,0,134.972,36.855ZM175.593,54.8l.469.176-.273,1.172q-1.367,5.742-1.719,7.5a14.092,14.092,0,0,0-.293,2.656q0,.2.078,1.016a3.662,3.662,0,0,1,.02.43,4.012,4.012,0,0,1-.254,1.7,1.5,1.5,0,0,1-1.426.84q-1.426,0-2.246-1.934a22.531,22.531,0,0,1-1.465-8.77,36.463,36.463,0,0,1,.273-4.277q.312-2.52,1.387-7.539a26.154,26.154,0,0,0,.7-4.473,7,7,0,0,0-1.25-3.809,2.967,2.967,0,0,1,1.484.527,10.513,10.513,0,0,1,2.539,2.637,5.44,5.44,0,0,1,1.23,3.008,3.772,3.772,0,0,1-.41,1.563q-.078.156-.469.918a23.833,23.833,0,0,0-2.91,10.9,14.6,14.6,0,0,0,.664,4.551q1.055-2.227,1.6-3.477Q175.183,55.723,175.593,54.8Zm4.453-10.156.332-.371a7.2,7.2,0,0,0,1.582.8,6.718,6.718,0,0,0,2.129.313,19.887,19.887,0,0,0,5.547-.879,12.877,12.877,0,0,0,2.578-1,2.547,2.547,0,0,1,1.113-.41,3.288,3.288,0,0,1,1.7.605q1.523.938,1.523,2.012A1.08,1.08,0,0,1,196,46.738a4.918,4.918,0,0,1-1.445.352,21.977,21.977,0,0,0-5.234,1.406q-2.422.957-3.418,1.445a23.4,23.4,0,0,0-2.109,1.191l-.332-.371q.469-.41,1.738-1.543,1.387-1.23,1.992-1.738-.879.059-1.27.059a7.245,7.245,0,0,1-3.867-1.055A8.708,8.708,0,0,1,180.046,44.648Zm.176,12.188.566.137a13.228,13.228,0,0,0-.137,1.719,5.705,5.705,0,0,0,1.621,4.453,5.58,5.58,0,0,0,2.324,1.27,16.136,16.136,0,0,0,4.16.469,22.987,22.987,0,0,0,3.613-.273,7.746,7.746,0,0,0,1.309-.312l.9-.332a2.07,2.07,0,0,1,.723-.156,3.017,3.017,0,0,1,1.523.547,4.425,4.425,0,0,1,1.27,1.172,2,2,0,0,1,.371,1.094,1.522,1.522,0,0,1-1.23,1.523,20.845,20.845,0,0,1-5.469.488q-12.168,0-12.168-8.008A12.4,12.4,0,0,1,180.222,56.836Zm35.7-18.008a3.492,3.492,0,0,1,1.055-.605,4,4,0,0,1,1.113-.137,13.353,13.353,0,0,1,2.324.234q3.984.7,3.984,2.461a2.871,2.871,0,0,1-.156.859q-.039.137-.43,1.133a15.083,15.083,0,0,0-.7,3.867q-.059.7-.059,1.582a1.579,1.579,0,0,0,1,.371,8.647,8.647,0,0,0,3.574-1.074,14.056,14.056,0,0,0,2.363-1.445,1.755,1.755,0,0,1,1.016-.43,4.436,4.436,0,0,1,2.129.625q1.035.586,1.035,1.289a1.282,1.282,0,0,1-.645,1.055,12.78,12.78,0,0,1-3.555,1.406,13.5,13.5,0,0,1-3.5.566,5.227,5.227,0,0,1-2.285-.469,5.072,5.072,0,0,1-1.172-.8q-.02,1.172-.02,1.7a83.81,83.81,0,0,0,.527,10.1,24.435,24.435,0,0,1,8.848,3.027,4.4,4.4,0,0,1,2.48,3.848,3.579,3.579,0,0,1-.2,1.211,1.1,1.1,0,0,1-1.074.82,1.734,1.734,0,0,1-.977-.371,6.8,6.8,0,0,1-.762-.645,26,26,0,0,0-4.238-3.086,20.6,20.6,0,0,0-3.809-1.641q.059,1,.059,1.621A6.758,6.758,0,0,1,223.27,69a4.749,4.749,0,0,1-3.437,2.285,15.188,15.188,0,0,1-3.4.371,10.353,10.353,0,0,1-5.254-1.211,4.361,4.361,0,0,1-1.66-1.6,3.93,3.93,0,0,1-.547-2.051,4.555,4.555,0,0,1,1.543-3.359,9.824,9.824,0,0,1,5.1-2.285,18.61,18.61,0,0,1,3.574-.332q.371,0,1.113.02-.234-14.824-.547-18.145a5.278,5.278,0,0,0-.488-2.109,3.112,3.112,0,0,0-1.777-1.406A9.543,9.543,0,0,0,215.926,38.828ZM220.2,63.574a27.245,27.245,0,0,0-2.852-.176,13.465,13.465,0,0,0-4.727.723q-2.383.918-2.383,2.6a2.015,2.015,0,0,0,1.328,1.895,7.057,7.057,0,0,0,3.027.566,8.416,8.416,0,0,0,4-.84,2.682,2.682,0,0,0,1.484-2.109A21.362,21.362,0,0,0,220.2,63.574ZM251,39.355a5.383,5.383,0,0,0,1.406,2.207,2.794,2.794,0,0,0,1.895.762,26.926,26.926,0,0,0,5.938-1.25,24.693,24.693,0,0,0,2.813-.937,3.517,3.517,0,0,0,.84-.508,2.1,2.1,0,0,1,1.172-.547,3.451,3.451,0,0,1,2.031,1.055q1.934,1.719,1.934,2.7a.873.873,0,0,1-.254.645,5.215,5.215,0,0,1-1,.625A10.071,10.071,0,0,0,266.2,45.2q-.977.859-4.1,3.906-2.07,2.051-6.895,7.168l-.84.879.039.059a29.98,29.98,0,0,1,3.945-2.168,16.83,16.83,0,0,1,6.816-1.562,9.383,9.383,0,0,1,6.621,2.3,7.263,7.263,0,0,1,2.4,5.625,8.9,8.9,0,0,1-1.953,5.586,11.392,11.392,0,0,1-5.586,3.77,17.256,17.256,0,0,1-5.566.879,9.611,9.611,0,0,1-5.234-1.25,3.716,3.716,0,0,1-1.914-3.242,3.367,3.367,0,0,1,1.133-2.559,5.068,5.068,0,0,1,3.652-1.27q4.727,0,7.07,4.59a7.869,7.869,0,0,0,2.52-1.895,7.73,7.73,0,0,0,1.875-5.234q0-3.477-2.461-4.883a7.043,7.043,0,0,0-3.613-.8,13.546,13.546,0,0,0-8.027,2.969,21.628,21.628,0,0,0-4.707,4.668,5.328,5.328,0,0,1-.977,1.133,1.237,1.237,0,0,1-.723.293q-.762,0-1.348-1.172a4.682,4.682,0,0,1-.469-2.051,1.942,1.942,0,0,1,.527-1.406q.273-.293,1.348-1.191a61.468,61.468,0,0,0,5.059-5.176q3.848-4.238,5.645-6.523,3.77-4.8,3.77-4.922,0-.059-.078-.059-.117,0-2.871,1.152-3.047,1.25-5.312,2.324a4.446,4.446,0,0,1-1.7.508q-1.27,0-2.461-1.8a5.966,5.966,0,0,1-1.152-3.184A2.913,2.913,0,0,1,251,39.355Zm11.523,29.766a6.107,6.107,0,0,0-1.562-2.734,4.408,4.408,0,0,0-3.184-1.367,2.6,2.6,0,0,0-2.012.762,1.716,1.716,0,0,0-.449,1.172q0,1.367,1.777,2.051a7.642,7.642,0,0,0,2.773.449A12.7,12.7,0,0,0,262.528,69.121Zm-420.885,72.637-.352-.41a28.525,28.525,0,0,0,7.363-10.508,34.576,34.576,0,0,0,2.012-6.66,12.953,12.953,0,0,0,.293-2.383,2.282,2.282,0,0,0-.977-1.855,5.732,5.732,0,0,0-1.621-.879,1.786,1.786,0,0,1,1.289-.449,8.489,8.489,0,0,1,3.3,1.055,8.593,8.593,0,0,1,2.383,1.582,45.084,45.084,0,0,0,4.023-3.2,24.489,24.489,0,0,0,3.535-3.535,1.133,1.133,0,0,0,.273-.605q0-.371-.625-.469a10.465,10.465,0,0,0-1.133-.039,41.328,41.328,0,0,0-5.605.566q-8.535,1.309-12.266,3.125a3.92,3.92,0,0,1-1.6.508,2.835,2.835,0,0,1-1.777-.859,8.424,8.424,0,0,1-2.422-3.5,3.916,3.916,0,0,1-.273-1.27,2.772,2.772,0,0,1,.234-1.055,4.667,4.667,0,0,0,1.6,1.816,4.787,4.787,0,0,0,2.676.7q1.211,0,3.105-.2.9-.1,6.641-.8,1.875-.234,3.34-.391,3.848-.449,5.8-.742a6.891,6.891,0,0,0,1.523-.488,1.539,1.539,0,0,1,.605-.156,4.75,4.75,0,0,1,2.539,1.367,14.435,14.435,0,0,1,2.637,2.734,2.2,2.2,0,0,1,.469,1.172,1.087,1.087,0,0,1-.488.957,3.3,3.3,0,0,1-1.035.391,8.5,8.5,0,0,0-1.992.723q-3.184,1.621-5.43,2.6-.43.2-4.258,1.777-.2.664-.605,1.973a36.315,36.315,0,0,1-3.281,7.949,26.065,26.065,0,0,1-6.484,7.246A22.431,22.431,0,0,1-158.357,141.758Zm41.18.234-.312-.449a62.134,62.134,0,0,0,4.727-4.062,58.926,58.926,0,0,0,12.109-17.637,24.693,24.693,0,0,0,1.543-4,3.007,3.007,0,0,0,.137-.723q0-.449-.742-.449a25.953,25.953,0,0,0-3.809.547,47.857,47.857,0,0,0-11.016,3.262,3.187,3.187,0,0,1-1.426.371,3.573,3.573,0,0,1-2.4-1.387,9.192,9.192,0,0,1-1.816-2.7,3.42,3.42,0,0,1-.293-1.309,2.631,2.631,0,0,1,.234-.977,4.873,4.873,0,0,0,1.484,1.777,4.25,4.25,0,0,0,2.559.723,109.772,109.772,0,0,0,12.383-1.7,31.988,31.988,0,0,0,3.594-.742,8.627,8.627,0,0,0,.9-.41,1.779,1.779,0,0,1,.82-.254,3.094,3.094,0,0,1,1.523.664,12.732,12.732,0,0,1,2.344,2.051,2.876,2.876,0,0,1,.9,1.7,1.936,1.936,0,0,1-.664,1.289,5.867,5.867,0,0,0-.7.84q-.234.352-.859,1.563a65.309,65.309,0,0,1-6.973,10.918,38.565,38.565,0,0,1-9.531,8.594A51.019,51.019,0,0,1-117.177,141.992Zm26.328-35.664a3.822,3.822,0,0,1,2.93,1.328,3.906,3.906,0,0,1,1.035,2.7,3.905,3.905,0,0,1-1.328,3.008,3.93,3.93,0,0,1-2.715,1.035,3.846,3.846,0,0,1-2.988-1.328,3.955,3.955,0,0,1-1.035-2.734,3.9,3.9,0,0,1,1.328-2.969A3.961,3.961,0,0,1-90.848,106.328Zm-.117,1.23A2.592,2.592,0,0,0-93,108.5a2.665,2.665,0,0,0-.723,1.875,2.657,2.657,0,0,0,.918,2.07,2.734,2.734,0,0,0,1.895.723,2.7,2.7,0,0,0,2.07-.918,2.805,2.805,0,0,0,.723-1.914,2.689,2.689,0,0,0-.937-2.051A2.715,2.715,0,0,0-90.966,107.559Zm10.692,6.582a2.413,2.413,0,0,1,1.055-.254q1.895,0,5.313,1.973.586-.039,5.859-.586,8.77-.977,10.039-1.191a4.68,4.68,0,0,0,1.328-.488,1.886,1.886,0,0,1,.84-.273,4.837,4.837,0,0,1,2.676,1.563q1.68,1.562,1.68,2.48a2.161,2.161,0,0,1-.508,1.113,7.326,7.326,0,0,0-.9,1.914q-.254.8-2.637,10.2l-.254,1q2.207,1.094,2.207,2.422a1.06,1.06,0,0,1-.312.781,1.035,1.035,0,0,1-.762.254,16.41,16.41,0,0,1-1.914-.2,43.775,43.775,0,0,0-5.781-.293,71.472,71.472,0,0,0-9.844.684q.02.508.02.859a5.014,5.014,0,0,1-.176,1.563,1,1,0,0,1-1.035.684q-1.172,0-2.266-2.109a5.048,5.048,0,0,1-.684-2.246,6.8,6.8,0,0,1,.156-.957,16.121,16.121,0,0,0,.234-3.164q0-2.832-.391-7.031a28.914,28.914,0,0,0-.82-5.2A5.917,5.917,0,0,0-80.273,114.141Zm6.953,3.926.059,1.152q.742,11.465.918,13.516,1.25-.059,3.223-.215,1.68-.137,4.629-.371,3.457-.254,5.391-.449,1.719-9.238,2.285-15.1H-57.5q-1.367,0-8.4.625Q-70.664,117.637-73.32,118.066Zm33.856,2.109a5.031,5.031,0,0,0,1.523,2.109,4.209,4.209,0,0,0,2.07.742,28.549,28.549,0,0,0,2.891.1q.859,0,9.414-.078,6.328-.1,7.734-.1,6.367,0,7.656.469,1.016.352,1.016.977,0,1.094-2.109,1.6a28.222,28.222,0,0,1-5.586.488q-1.543.039-8.125.1-7.3.059-9.8.234a10.49,10.49,0,0,0-1.6.2q-.176.059-.664.254a2.4,2.4,0,0,1-.82.156q-1.289,0-2.656-2.3a7.914,7.914,0,0,1-1.328-3.828,1.882,1.882,0,0,1,.1-.664A2.13,2.13,0,0,1-39.464,120.176ZM5,118.008l-.137-.527A51.787,51.787,0,0,0,15.1,113.359a28.088,28.088,0,0,0,4.453-2.812,1.077,1.077,0,0,0,.469-.8,1.429,1.429,0,0,0-.547-.9,3.984,3.984,0,0,0-1.309-.84,2.183,2.183,0,0,1,.859-.215,7.192,7.192,0,0,1,3.535,1.23q2.324,1.387,2.324,2.344a1.248,1.248,0,0,1-.742,1.016,42,42,0,0,1-6.953,2.871q3.633,1.27,3.633,2.656a5.425,5.425,0,0,1-.137.957q-.2,1.172-.293,2.52l.7-.078q3.73-.332,5.664-.625a5.188,5.188,0,0,0,1.465-.469,2.155,2.155,0,0,1,.938-.2,5.487,5.487,0,0,1,2.422.742q1.973,1.035,1.973,2.051a1.048,1.048,0,0,1-.2.625,1.152,1.152,0,0,1-1.035.469,11.863,11.863,0,0,1-1.465-.156,38.781,38.781,0,0,0-5.957-.41q-.918,0-4.668.117Q18.9,136.68,8.787,142.52l-.371-.391a21.055,21.055,0,0,0,3.32-3.906A29.936,29.936,0,0,0,16.5,123.848a50.993,50.993,0,0,0-6.133,1.25,22.964,22.964,0,0,0-3.906,1.387,2.848,2.848,0,0,1-1.191.313,2.525,2.525,0,0,1-1.289-.41A7.014,7.014,0,0,1,1.248,123.3a2.932,2.932,0,0,1-.313-1.289,1.259,1.259,0,0,1,.156-.547,5.756,5.756,0,0,0,1.68,1.543,3.914,3.914,0,0,0,1.875.41q.84,0,5.7-.723,3.34-.508,6.309-.9.078-1.27.078-2.031a7.257,7.257,0,0,0-.391-2.793,2.565,2.565,0,0,0-.918-1.074A53.585,53.585,0,0,1,5,118.008Zm53.426,22.207-.2-.586a24.743,24.743,0,0,0,5.41-2.3,15.062,15.062,0,0,0,8.008-13.555,11.529,11.529,0,0,0-1.445-5.937,9.355,9.355,0,0,0-6.27-4.473,14.6,14.6,0,0,0-3.516-.43q-.605,0-1.484.078a8.582,8.582,0,0,1,1.094,1.68,5,5,0,0,1,.527,2.266,21.513,21.513,0,0,1-2.012,7.734,43.771,43.771,0,0,1-4.258,7.832,14.937,14.937,0,0,1-3.4,3.77,3.39,3.39,0,0,1-1.953.7,2.339,2.339,0,0,1-1.836-.82A6.915,6.915,0,0,1,46,133.691a9.042,9.042,0,0,0-1.621-3.242,8.672,8.672,0,0,1-1.074-2.051,7.035,7.035,0,0,1-.449-2.539,10.458,10.458,0,0,1,1.152-4.551,15.867,15.867,0,0,1,6.094-6.66,19.5,19.5,0,0,1,5.742-2.383,20.944,20.944,0,0,1,5.02-.625,16.666,16.666,0,0,1,8.926,2.383,12.414,12.414,0,0,1,4.492,4.727,12.7,12.7,0,0,1,1.5,6.152,13.235,13.235,0,0,1-3.574,9.277,18.713,18.713,0,0,1-9.18,5.117A45.511,45.511,0,0,1,58.423,140.215Zm-.312-27.07a15.475,15.475,0,0,0-3.437,1.074,15.788,15.788,0,0,0-5.469,4.238,13.194,13.194,0,0,0-2.793,5.137,11.271,11.271,0,0,0-.449,3.086,7.952,7.952,0,0,0,1.406,4.8q.781,1.094,1.445,1.094.859,0,2.48-1.914a36.135,36.135,0,0,0,3.867-5.9,36.814,36.814,0,0,0,2.91-6.621,10.292,10.292,0,0,0,.566-2.852,4.811,4.811,0,0,0-.176-1.309q-.078-.215-.205-.527A1.309,1.309,0,0,0,58.111,113.145ZM101,129.668a1.348,1.348,0,0,1-.605.391,11.568,11.568,0,0,1-2.383.156A5.789,5.789,0,0,1,96.017,130q-.508-.234-.508-1.113v-4.629H93.966a15.922,15.922,0,0,1-.312,2.422,6.951,6.951,0,0,1-2.129,3.555,13.57,13.57,0,0,1-2.227,1.406l-.254-.43a8.685,8.685,0,0,0,1.7-2.3,11.282,11.282,0,0,0,.762-4.648H88.888v14.766l.02,2.715a.712.712,0,0,1-.43.762,7.577,7.577,0,0,1-2.07.2,1.326,1.326,0,0,1-.547-.1q-.254-.117-.273-.645.2-3.379.254-6.426.059-4.336.059-9.863,0-2.266-.137-4.316a40.485,40.485,0,0,1,3.711,2.031h11.133q.84-.957,1.66-1.8,1.25.977,2.441,1.934.371.371.371.586,0,.371-1.074.938v10.566q.02,1.934.02,3.359a3.7,3.7,0,0,1-.293,1.8,3.219,3.219,0,0,1-1.445,1.133,12.158,12.158,0,0,1-2.4.645,4.747,4.747,0,0,0-.7-2.266,2.264,2.264,0,0,0-1.055-.723q-.293-.117-1.23-.371l.02-.488q2.09.059,3.516.078a.713.713,0,0,0,.469-.156,1.017,1.017,0,0,0,.1-.586Zm0-1.191v-4.219h-3.2v3.594q0,.41.1.469a.581.581,0,0,0,.293.059q.527,0,.684-.215a10.1,10.1,0,0,0,.625-2.48l.449.059.1,1.895a1.5,1.5,0,0,0,.078.43,1,1,0,0,0,.391.137A.729.729,0,0,1,101,128.477Zm16.191-.293h-2.773V137.4q1.914-.2,3.789-.508a26.306,26.306,0,0,0-2.227-5.43l.449-.273a26.729,26.729,0,0,1,4.277,4.3,6.12,6.12,0,0,1,1.484,3.125,5.154,5.154,0,0,1-1,2.734q-.625.977-1.27.977-.508,0-.723-.645a8.568,8.568,0,0,1-.293-1.387q-.234-1.523-.449-2.383a95.216,95.216,0,0,1-11.289,3.32q-.117.469-.137.625-.215,1-.664,1-.371,0-.605-.781-.488-1.66-1.016-4.023h.918q2.266,0,5.7-.352v-9.512h-2.715v1.8a.763.763,0,0,1-.127.5.937.937,0,0,1-.518.225,8.824,8.824,0,0,1-1.777.137q-.449,0-.547-.234a1.262,1.262,0,0,1-.059-.43q.117-3.672.117-8.242,0-5.645-.137-8.828a38.63,38.63,0,0,1,3.535,1.973h2.227v-3.125q-.02-3.379-.215-5.137,2.891.293,4.121.508.9.156.9.605,0,.293-.469.527a6.419,6.419,0,0,1-1.289.43v6.191h2.656q.8-.937,1.563-1.758,1.23.9,2.363,1.777.469.391.469.625,0,.371-1.191,1.152.02,9.395.117,12.52a.65.65,0,0,1-.43.684,5.849,5.849,0,0,1-1.973.234q-.605,0-.762-.332a1.47,1.47,0,0,1-.039-.41Zm0-.879V115.957h-2.773V127.3Zm-5.82,0V115.957h-2.715V127.3Zm-18.027,5.918H91.9a9.528,9.528,0,0,0-1.7.176l-.215-1.348a8.569,8.569,0,0,0,2.227.293h4.082q.762-.918,1.523-1.777,1.23.957,2.539,2.129a.525.525,0,0,1,.137.293q0,.234-.43.234H96.154v4.434q.02,2.012.039,3.105a.638.638,0,0,1-.469.684,8.018,8.018,0,0,1-1.914.2.6.6,0,0,1-.664-.664l.059-1.152q.137-2.969.137-3.809Zm-7.773-23.066-.273-1.484a13.9,13.9,0,0,0,2.988.371h10.84q1.289-1.387,2.52-2.637,1.934,1.445,3.867,2.988a.48.48,0,0,1,.176.293q0,.234-.43.234H88.283A15.815,15.815,0,0,0,85.568,110.156Zm2.109,1.113q1.836.84,3.613,1.855h7.441q.859-.977,1.719-1.836,1.309.938,2.539,1.875.352.332.352.527,0,.332-1.094,1.035,0,3.848.059,6.074a.685.685,0,0,1-.254.508,5.065,5.065,0,0,1-2.227.293,1.812,1.812,0,0,1-.508-.059q-.273-.078-.312-.586v-.937H90.959v.82a.657.657,0,0,1-.312.605,5.3,5.3,0,0,1-2.109.273,1.236,1.236,0,0,1-.625-.137q-.2-.137-.2-.605.059-2.4.059-4.531Q87.775,113.242,87.677,111.27ZM90.959,114v5.137h8.047V114ZM128.67,126l-.312-.488a48.906,48.906,0,0,0,10.82-10.625q4.043-5.371,4.941-8.535,1.777.371,2.559.547a15.985,15.985,0,0,1,3.242.859.391.391,0,0,1,.234.332q0,.352-.547.547a5.345,5.345,0,0,1-1.133.254,23.809,23.809,0,0,0,8.184,7.7,30.2,30.2,0,0,0,10.1,3.965l-.059.547a4.2,4.2,0,0,0-1.348.566,7.331,7.331,0,0,0-2.168,3.555,33.513,33.513,0,0,1-4.687-2.793,32.32,32.32,0,0,1-5.547-5.176,27.369,27.369,0,0,1-2.578-3.457q-.957-1.582-2.48-4.434a43.865,43.865,0,0,1-9.316,10.586A44.6,44.6,0,0,1,128.67,126Zm9.824-3.75-.312-1.406a16.327,16.327,0,0,0,2.773.293h7.969q1.27-1.484,2.52-2.91,1.992,1.465,4.023,3.145a.694.694,0,0,1,.254.41q0,.234-.508.234H140.877A15.451,15.451,0,0,0,138.494,122.246Zm-3.594,3.125q2.344,1.113,4.473,2.363h15.078q1-1.211,2.109-2.422,1.641,1.172,3.2,2.422.449.391.449.645,0,.43-1.426,1.016,0,5.957.176,12.031a2.081,2.081,0,0,1,.02.215.7.7,0,0,1-.508.723,8.785,8.785,0,0,1-2.734.313q-.645,0-.82-.352a1.642,1.642,0,0,1-.059-.547v-1.6H138.923V141.6a.911.911,0,0,1-.2.684,4.859,4.859,0,0,1-2.363.43q-.41.02-.488.02a1.191,1.191,0,0,1-.781-.215.879.879,0,0,1-.2-.664l.039-2.637q.117-6.992.117-8.77Q135.056,127.578,134.9,125.371Zm4.023,3.242V139.3h15.938V128.613Z" transform="translate(279.52 34.453)" fill="#2b2c31"/>
</svg>
